<?xml version="1.0" standalone="no"?>
<!DOCTYPE svg PUBLIC "-//W3C//DTD SVG 20010904//EN"
 "http://www.w3.org/TR/2001/REC-SVG-20010904/DTD/svg10.dtd">
<svg version="1.0" xmlns="http://www.w3.org/2000/svg"
 width="806.000000pt" height="806.000000pt" viewBox="0 0 806.000000 806.000000"
 preserveAspectRatio="xMidYMid meet">
<metadata>
Created by potrace 1.14, written by Peter Selinger 2001-2017
</metadata>
<g transform="translate(0.000000,806.000000) scale(0.100000,-0.100000)"
fill="#000000" stroke="none">
<path d="M2229 8043 c-262 -53 -456 -301 -444 -568 6 -123 23 -184 81 -278
106 -173 277 -266 487 -268 90 -1 212 32 268 71 15 11 32 20 38 20 6 0 42 32
80 70 120 119 180 276 168 438 -15 222 -157 415 -360 491 -102 37 -212 46
-318 24z"/>
<path d="M4106 7978 c-180 -26 -333 -138 -415 -302 -50 -98 -59 -141 -59 -258
0 -162 55 -290 174 -404 63 -61 141 -104 260 -143 89 -30 142 -50 241 -89 83
-34 269 -130 355 -183 44 -27 83 -49 88 -49 5 0 10 -3 12 -7 2 -5 23 -21 48
-38 180 -119 416 -331 579 -520 343 -396 587 -926 666 -1445 4 -25 9 -53 10
-62 27 -142 26 -775 0 -818 -2 -3 -6 -30 -10 -60 -3 -30 -10 -71 -15 -90 -5
-19 -12 -47 -15 -62 -11 -57 -15 -75 -35 -148 -11 -41 -22 -83 -25 -92 -11
-48 -84 -237 -131 -343 -87 -193 -224 -425 -328 -557 -12 -14 -32 -41 -46 -59
-111 -150 -326 -362 -515 -511 -192 -150 -529 -339 -755 -422 -117 -42 -321
-105 -369 -112 -20 -3 -39 -8 -42 -10 -3 -2 -21 -6 -40 -9 -19 -3 -45 -8 -59
-10 -60 -12 -79 -15 -155 -26 -204 -27 -540 -29 -720 -5 -54 7 -132 19 -150
22 -10 2 -36 6 -56 9 -131 20 -412 103 -579 172 -82 34 -255 118 -331 161
-143 80 -348 89 -496 20 -357 -164 -448 -625 -178 -903 84 -87 290 -201 555
-309 36 -15 74 -31 85 -36 78 -36 385 -133 523 -165 61 -15 264 -56 297 -60
22 -3 47 -8 55 -10 8 -2 44 -7 80 -10 36 -4 74 -9 85 -11 150 -31 772 -24 990
11 17 2 48 7 70 10 22 4 51 8 65 11 14 2 41 7 60 10 19 3 41 7 49 10 8 2 30 7
50 10 76 11 348 86 489 135 512 177 997 460 1392 814 76 67 302 297 355 360
28 32 64 75 81 94 37 43 184 242 241 326 178 265 351 615 458 928 74 215 147
502 169 667 4 25 9 56 11 70 5 24 10 67 20 161 26 242 26 680 0 874 -36 265
-58 390 -101 558 -200 792 -632 1503 -1248 2050 -397 352 -886 636 -1382 802
-180 61 -245 70 -358 53z"/>
<path d="M3018 5544 c-131 -31 -267 -125 -341 -236 -81 -123 -112 -291 -81
-433 16 -69 71 -195 86 -195 5 0 8 -6 8 -14 0 -7 31 -43 69 -79 367 -346 963
-79 949 425 -6 237 -163 448 -387 519 -82 26 -223 32 -303 13z"/>
<path d="M2202 3691 c-163 -47 -288 -149 -362 -297 -43 -87 -60 -172 -55 -278
13 -299 252 -529 550 -531 97 0 136 5 204 30 131 46 247 151 316 285 54 105
68 295 30 410 -58 177 -196 317 -364 372 -90 29 -234 33 -319 9z"/>
</g>
</svg>
