<?xml version="1.0" standalone="no"?>
<!DOCTYPE svg PUBLIC "-//W3C//DTD SVG 20010904//EN"
 "http://www.w3.org/TR/2001/REC-SVG-20010904/DTD/svg10.dtd">
<svg version="1.0" xmlns="http://www.w3.org/2000/svg"
 width="2560.000000pt" height="2560.000000pt" viewBox="0 0 2560.000000 2560.000000"
 preserveAspectRatio="xMidYMid meet">
<metadata>
Created by potrace 1.14, written by Peter Selinger 2001-2017
</metadata>
<g transform="translate(0.000000,2560.000000) scale(0.100000,-0.100000)"
fill="#000000" stroke="none">
<path d="M15010 25043 c0 -4 -30 -9 -67 -10 -65 -2 -172 -10 -183 -14 -3 -1
-8 -1 -12 0 -5 0 -8 -3 -8 -7 0 -4 -15 -7 -32 -7 -18 1 -36 -3 -39 -7 -3 -5
-17 -10 -30 -10 -13 -1 -30 -6 -36 -11 -7 -5 -13 -7 -13 -3 0 3 -15 0 -34 -8
-19 -8 -37 -12 -40 -8 -3 3 -6 0 -6 -7 0 -7 -3 -10 -8 -7 -4 2 -32 -6 -62 -19
-30 -13 -59 -21 -64 -18 -5 4 -7 2 -3 -3 3 -5 -6 -14 -19 -21 -13 -6 -22 -7
-18 -2 3 5 -2 6 -10 3 -9 -3 -13 -10 -10 -15 3 -5 -3 -9 -12 -9 -10 0 -26 -8
-37 -17 -15 -13 -18 -14 -12 -3 4 8 -3 5 -16 -7 -13 -12 -26 -21 -29 -21 -13
2 -69 -40 -62 -47 4 -5 2 -5 -5 -2 -6 4 -18 0 -27 -9 -9 -8 -22 -12 -28 -8 -7
4 -10 4 -6 -1 8 -9 -9 -28 -34 -38 -10 -3 -18 -11 -18 -17 0 -5 -7 -10 -15
-10 -7 0 -19 -8 -24 -17 -6 -10 -11 -14 -11 -10 0 4 -6 2 -14 -5 -8 -7 -12
-16 -9 -20 2 -5 -3 -8 -11 -8 -8 0 -21 -9 -29 -20 -8 -11 -16 -17 -19 -14 -4
3 -9 -4 -13 -15 -3 -11 -15 -23 -25 -26 -11 -3 -19 -9 -17 -13 1 -4 -15 -24
-35 -45 -21 -20 -34 -37 -30 -37 3 0 -8 -13 -26 -30 -18 -16 -30 -30 -25 -30
4 0 -1 -7 -11 -15 -11 -8 -16 -15 -11 -15 5 0 0 -7 -11 -15 -10 -8 -15 -15 -9
-15 5 0 -1 -7 -13 -16 -12 -8 -20 -20 -17 -25 4 -5 1 -9 -5 -9 -6 0 -9 -4 -6
-9 3 -5 -1 -11 -9 -15 -8 -3 -15 -12 -15 -21 0 -8 -5 -15 -11 -15 -5 0 -7 -4
-4 -10 3 -5 1 -10 -5 -10 -6 0 -8 -4 -5 -10 3 -5 2 -10 -2 -10 -5 0 -22 -29
-38 -65 -16 -36 -33 -65 -37 -65 -5 0 -7 -4 -3 -9 3 -5 1 -12 -5 -16 -6 -4 -8
-11 -5 -16 4 -5 1 -9 -6 -9 -7 0 -10 -3 -6 -6 3 -4 0 -19 -8 -35 -8 -15 -15
-37 -15 -49 0 -11 -5 -20 -12 -20 -6 0 -9 -3 -5 -6 3 -3 1 -18 -5 -33 -15 -40
-20 -63 -20 -94 0 -17 -5 -27 -12 -24 -7 3 -11 -8 -10 -32 1 -20 -4 -42 -10
-50 -9 -12 -8 -13 4 -6 12 7 13 6 4 -6 -6 -8 -11 -29 -10 -47 0 -17 -3 -32 -7
-32 -5 0 -5 -4 -2 -10 3 -5 1 -19 -5 -30 -8 -14 -8 -20 0 -20 6 0 8 -5 4 -12
-10 -16 -11 -228 -1 -228 4 0 3 -9 -3 -20 -6 -11 -7 -20 -2 -20 5 0 8 -11 7
-25 -2 -14 0 -25 4 -25 4 0 8 -7 8 -15 0 -8 -5 -15 -11 -15 -6 0 -6 -4 1 -11
6 -6 9 -18 6 -25 -3 -8 1 -14 8 -14 11 0 11 -3 -1 -10 -8 -5 -10 -10 -3 -10 6
0 10 -8 9 -17 -2 -10 3 -35 10 -55 7 -21 11 -38 7 -38 -3 0 0 -6 6 -14 8 -10
9 -15 1 -18 -6 -2 -2 -13 10 -26 13 -14 16 -22 8 -22 -10 0 -10 -2 1 -9 7 -5
11 -13 7 -19 -3 -6 -2 -13 4 -17 5 -3 10 -17 10 -30 0 -13 5 -27 10 -30 6 -4
8 -11 5 -16 -4 -5 -1 -9 5 -9 7 0 10 -7 6 -15 -3 -8 -1 -15 4 -15 6 0 10 -9
10 -20 0 -11 4 -20 8 -20 5 0 15 -18 22 -40 7 -22 17 -40 22 -40 4 0 8 -8 8
-18 0 -10 8 -27 18 -38 9 -11 18 -26 20 -34 2 -8 8 -18 14 -21 5 -3 10 -10 11
-15 1 -5 6 -8 10 -6 5 1 6 -2 3 -7 -4 -5 1 -17 10 -25 8 -9 13 -16 9 -16 -4 0
0 -7 7 -15 31 -34 36 -43 31 -49 -4 -3 1 -6 10 -6 9 0 17 -7 17 -15 0 -8 9
-19 20 -25 11 -6 20 -16 20 -22 0 -6 14 -24 32 -40 17 -15 28 -28 23 -28 -5 0
1 -7 13 -16 12 -8 20 -20 16 -25 -3 -5 -2 -9 3 -8 21 4 33 -2 33 -16 0 -8 5
-15 10 -15 6 0 10 -7 10 -16 0 -8 4 -13 9 -10 5 4 25 -10 45 -29 20 -19 40
-35 44 -35 4 0 15 -9 25 -20 10 -12 22 -18 27 -15 6 3 10 -1 10 -9 0 -8 9 -18
20 -21 11 -3 20 -11 20 -17 0 -6 3 -9 6 -5 4 3 22 -5 40 -20 19 -14 34 -22 34
-17 0 4 6 0 13 -11 8 -10 19 -15 24 -12 6 4 18 -2 28 -13 10 -11 24 -20 32
-20 8 0 12 -4 8 -9 -3 -6 4 -8 15 -6 11 2 20 -1 20 -6 0 -6 5 -7 10 -4 6 3 10
2 10 -3 0 -5 21 -15 46 -22 25 -7 48 -19 51 -26 2 -7 11 -10 19 -7 8 3 21 0
29 -7 8 -6 19 -9 25 -5 5 3 10 1 10 -5 0 -6 4 -9 9 -5 5 3 13 0 16 -6 4 -5 13
-8 21 -5 8 3 14 1 14 -5 0 -6 4 -8 9 -5 5 4 11 2 13 -4 1 -5 20 -10 41 -12 20
-1 37 -6 37 -11 0 -5 6 -7 14 -4 7 3 19 0 26 -6 10 -9 11 -9 5 2 -6 10 -4 12
6 5 8 -4 19 -9 24 -11 6 -1 21 -4 35 -8 14 -3 41 -7 60 -9 19 -3 34 -9 33 -15
-2 -6 4 -8 11 -5 8 3 24 0 36 -6 18 -10 21 -10 14 2 -6 11 -5 11 9 -1 9 -7 17
-10 17 -5 0 4 5 3 11 -3 6 -6 18 -9 27 -6 8 4 13 2 10 -3 -4 -5 4 -9 15 -10
36 -1 78 -12 91 -23 7 -6 16 -8 19 -5 3 4 14 3 24 -1 22 -10 44 -16 61 -17 6
-1 12 -5 12 -10 0 -5 4 -7 10 -3 5 3 25 -1 45 -9 25 -11 33 -12 28 -3 -5 9 -3
9 9 0 8 -7 18 -10 21 -6 4 3 7 1 7 -6 0 -7 7 -11 15 -8 8 4 17 2 20 -3 4 -6
17 -10 30 -10 13 0 27 -5 30 -10 5 -8 11 -7 21 1 12 10 15 10 12 -1 -2 -9 6
-14 19 -15 12 0 25 -3 29 -7 4 -5 16 -8 26 -8 10 0 18 -4 18 -8 0 -4 12 -9 28
-10 15 -1 29 -7 30 -12 2 -6 7 -8 12 -5 10 6 70 -15 70 -25 0 -4 9 -6 20 -3
11 3 20 1 20 -4 0 -5 12 -10 26 -11 14 -1 32 -9 40 -17 9 -8 20 -12 26 -9 5 4
20 2 31 -4 23 -10 58 -25 67 -26 9 -2 75 -28 117 -47 24 -11 50 -19 58 -19 8
0 15 -4 15 -10 0 -5 10 -10 23 -10 13 0 32 -6 42 -14 11 -8 26 -11 34 -8 10 4
12 1 6 -8 -6 -10 -3 -12 13 -8 12 4 22 2 22 -3 0 -5 12 -12 28 -15 15 -4 37
-14 50 -22 12 -8 22 -11 22 -8 0 4 10 0 23 -9 13 -8 27 -12 30 -8 4 3 7 1 7
-5 0 -7 7 -12 16 -12 8 0 12 -4 9 -10 -3 -5 0 -7 9 -4 8 3 35 -6 61 -20 25
-14 52 -26 60 -26 7 0 15 -5 17 -10 2 -6 13 -12 26 -13 12 0 22 -6 22 -11 0
-5 3 -6 7 -3 3 4 13 1 22 -7 9 -8 18 -15 21 -15 20 -1 70 -25 70 -33 0 -5 4
-7 9 -3 5 3 16 -1 24 -9 8 -8 17 -12 21 -9 3 4 6 1 6 -5 0 -7 3 -12 8 -11 15
2 52 -14 52 -23 0 -5 4 -7 9 -3 5 3 16 -2 24 -10 9 -8 23 -15 31 -15 9 0 16
-4 16 -10 0 -5 9 -10 20 -10 11 0 20 -5 20 -11 0 -5 5 -7 10 -4 6 3 10 1 10
-5 0 -6 4 -9 8 -6 5 3 18 -3 28 -13 11 -10 28 -17 37 -15 10 1 21 -4 23 -11 5
-12 40 -28 57 -26 4 1 7 -3 7 -7 0 -4 25 -21 55 -36 30 -16 64 -37 75 -48 11
-10 22 -18 25 -18 28 1 35 -1 30 -10 -3 -5 3 -10 14 -10 12 0 21 -4 21 -10 0
-5 6 -10 13 -10 7 0 22 -8 33 -17 11 -10 26 -19 34 -21 8 -2 22 -10 31 -18 9
-8 19 -11 22 -7 4 3 7 1 7 -5 0 -7 7 -12 16 -12 8 0 13 -4 10 -9 -5 -8 3 -12
39 -20 6 -1 14 -9 18 -17 4 -8 15 -14 22 -14 8 0 15 -4 15 -10 0 -5 7 -10 15
-10 9 0 18 -7 22 -16 3 -9 13 -14 24 -11 11 3 17 2 14 -3 -2 -4 16 -18 40 -31
25 -13 45 -27 45 -31 0 -5 7 -8 15 -8 8 0 15 -4 15 -10 0 -5 7 -10 15 -10 8 0
15 -7 15 -16 0 -8 4 -12 10 -9 9 6 91 -50 98 -67 2 -5 10 -8 17 -8 8 0 20 -9
28 -20 8 -11 17 -17 20 -13 4 3 7 1 7 -6 0 -7 5 -9 10 -6 6 3 10 2 10 -3 0 -5
11 -15 25 -22 13 -7 22 -18 18 -23 -3 -6 -1 -7 5 -3 6 3 18 -1 26 -10 9 -8 16
-13 16 -9 0 3 11 -4 25 -17 38 -36 55 -49 55 -43 0 3 8 -3 18 -12 25 -24 55
-48 64 -51 9 -4 53 -40 90 -74 16 -16 33 -28 38 -28 5 0 13 -6 17 -14 4 -8 14
-16 22 -18 7 -2 31 -20 52 -40 22 -21 39 -34 39 -30 0 4 11 -6 25 -21 14 -15
29 -27 34 -27 4 0 14 -11 21 -25 10 -18 16 -22 22 -13 6 10 8 9 8 -2 0 -8 13
-24 29 -35 16 -10 27 -23 25 -27 -5 -7 10 -12 29 -9 4 0 7 -3 7 -9 0 -5 17
-21 38 -36 20 -14 28 -23 17 -20 -13 5 -17 4 -10 -3 6 -5 16 -11 24 -13 7 -2
43 -33 80 -69 37 -36 75 -68 84 -72 9 -3 17 -12 17 -19 0 -7 16 -24 35 -38 19
-14 37 -33 41 -43 3 -10 8 -16 11 -13 7 7 82 -68 76 -77 -2 -4 0 -6 5 -5 11 4
72 -60 72 -75 0 -6 3 -8 6 -4 8 8 34 -18 34 -34 0 -7 3 -10 6 -7 7 7 54 -36
54 -50 0 -5 7 -12 15 -16 8 -3 15 -13 15 -23 0 -15 2 -16 10 -3 8 13 10 12 10
-2 0 -10 5 -18 11 -18 5 0 7 -4 4 -10 -4 -6 1 -7 11 -3 14 5 16 3 10 -12 -4
-11 -4 -16 0 -13 8 8 34 -14 27 -24 -2 -5 3 -8 11 -8 9 0 16 -3 16 -7 0 -5 22
-32 50 -61 27 -29 50 -56 51 -60 0 -4 5 -6 10 -4 5 1 9 -5 9 -13 0 -8 4 -15 9
-15 5 0 12 -8 15 -18 4 -11 17 -25 31 -32 13 -7 23 -16 20 -20 -6 -10 62 -80
71 -72 4 4 4 2 1 -4 -6 -10 17 -39 92 -121 14 -15 17 -23 8 -26 -7 -3 -5 -6 5
-6 9 -1 20 -10 23 -21 3 -11 13 -20 22 -20 8 0 13 -5 11 -12 -2 -6 9 -25 24
-42 49 -53 55 -60 61 -79 4 -10 11 -16 16 -13 8 5 25 -29 22 -46 -1 -5 5 -8
13 -8 8 0 20 -13 27 -29 7 -16 17 -27 21 -25 4 3 8 -2 8 -10 0 -8 7 -22 16
-30 8 -9 12 -16 8 -16 -4 0 3 -8 14 -19 12 -10 22 -24 22 -30 0 -7 5 -9 10 -6
6 3 10 -2 10 -12 0 -10 9 -25 19 -33 11 -7 18 -17 15 -22 -3 -4 0 -8 6 -8 6 0
9 -4 6 -8 -3 -5 4 -14 14 -22 10 -8 17 -17 14 -22 -3 -4 -1 -8 4 -8 12 0 45
-50 45 -67 0 -7 4 -10 9 -7 4 3 8 0 8 -7 0 -6 10 -20 22 -30 11 -11 16 -19 9
-19 -8 0 -9 -3 -1 -12 6 -7 18 -22 26 -33 9 -11 12 -14 8 -6 -5 9 -3 12 5 7 6
-4 9 -11 6 -16 -3 -5 2 -16 11 -24 8 -9 12 -16 8 -16 -4 0 2 -10 14 -23 12
-13 19 -27 15 -30 -3 -4 -1 -7 5 -7 7 0 12 -7 12 -15 0 -8 4 -15 9 -15 5 0 14
-13 21 -30 7 -16 16 -30 21 -30 5 0 9 -6 9 -13 0 -7 9 -23 19 -34 11 -12 18
-23 15 -26 -2 -2 2 -10 11 -17 8 -7 15 -17 15 -23 0 -5 12 -26 27 -45 15 -20
20 -32 12 -27 -11 7 -12 6 -2 -7 7 -8 9 -19 5 -23 -4 -5 -2 -5 4 -2 11 6 47
-52 43 -69 0 -4 6 -11 15 -16 9 -5 14 -13 11 -19 -4 -5 -1 -9 4 -9 6 0 11 -7
11 -15 0 -8 5 -15 11 -15 5 0 7 -4 4 -10 -3 -5 -1 -10 4 -10 6 0 11 -7 11 -16
0 -8 4 -13 8 -10 5 3 9 0 9 -7 1 -19 7 -42 14 -47 8 -6 73 -132 74 -143 0 -4
7 -12 15 -17 8 -5 12 -10 7 -10 -4 0 -1 -13 7 -29 9 -16 12 -32 8 -36 -4 -5
-2 -5 4 -2 6 3 17 -9 24 -28 8 -19 18 -35 22 -35 5 0 6 -4 3 -10 -3 -5 -1 -10
5 -10 7 0 9 -7 6 -15 -3 -9 1 -18 9 -21 7 -3 11 -12 8 -20 -3 -7 1 -16 9 -19
8 -3 15 -11 15 -18 1 -22 8 -41 21 -55 7 -8 10 -18 7 -23 -4 -5 -1 -9 5 -9 6
0 8 -4 5 -10 -3 -5 -1 -10 5 -10 6 0 9 -4 6 -8 -3 -5 2 -20 12 -33 9 -13 17
-28 18 -34 3 -24 17 -55 25 -55 5 0 9 -9 9 -20 0 -11 4 -20 10 -20 5 0 7 -7 4
-15 -4 -8 -1 -15 7 -15 7 0 10 -3 6 -6 -3 -3 3 -22 14 -41 11 -19 17 -38 14
-43 -3 -5 1 -15 9 -22 7 -8 17 -29 21 -46 4 -19 11 -29 17 -26 6 4 8 2 4 -4
-3 -6 -1 -23 6 -39 6 -15 12 -31 12 -35 1 -3 4 -10 9 -14 4 -4 7 -16 7 -26 0
-10 4 -18 8 -18 5 0 9 -6 9 -12 1 -20 7 -43 15 -48 3 -3 8 -14 10 -25 1 -11 7
-23 11 -26 4 -3 9 -16 10 -27 1 -12 5 -22 9 -22 4 0 8 -11 8 -25 0 -14 5 -25
12 -25 6 0 9 -3 5 -6 -3 -3 -1 -18 5 -33 11 -29 19 -60 20 -78 1 -7 5 -13 9
-13 7 0 24 -68 21 -82 -1 -5 3 -8 9 -8 5 0 7 -4 4 -10 -3 -5 -1 -10 5 -10 6 0
8 -5 5 -10 -4 -6 -1 -17 5 -25 7 -8 9 -15 5 -15 -4 0 -3 -6 3 -12 5 -7 12 -24
14 -38 1 -14 7 -28 12 -31 5 -4 9 -18 9 -33 0 -14 3 -26 8 -26 5 0 9 -13 9
-28 0 -15 5 -33 12 -40 7 -7 9 -12 6 -12 -4 0 -2 -15 3 -32 12 -41 21 -79 22
-95 0 -7 4 -13 9 -13 4 0 8 -13 8 -30 0 -16 5 -30 10 -30 6 0 9 -3 9 -7 -4
-27 3 -73 10 -69 5 4 8 -5 6 -19 -1 -14 2 -25 7 -25 6 0 8 -7 4 -15 -3 -8 -2
-15 3 -15 5 0 7 -11 6 -25 -2 -14 1 -25 6 -25 4 0 6 -7 3 -15 -3 -8 -2 -20 2
-27 10 -15 16 -43 17 -75 1 -13 4 -23 7 -23 5 0 10 -27 13 -67 0 -7 3 -13 7
-13 4 0 7 -13 8 -29 0 -17 6 -40 12 -52 9 -16 9 -20 0 -14 -8 5 -7 -2 2 -21 7
-16 13 -38 13 -49 -1 -11 4 -26 9 -34 9 -12 8 -13 -4 -6 -12 7 -13 6 -4 -6 7
-8 14 -30 17 -50 2 -20 8 -43 12 -49 6 -9 4 -11 -4 -5 -10 6 -11 3 -2 -13 6
-11 11 -37 11 -56 0 -20 3 -36 8 -36 4 0 8 -21 10 -47 1 -26 6 -50 10 -53 4
-3 8 -23 9 -45 6 -107 8 -125 13 -125 3 0 6 -12 7 -27 1 -16 2 -54 4 -85 1
-32 5 -58 9 -58 3 0 6 -15 7 -32 2 -62 7 -93 18 -100 6 -5 5 -8 -4 -8 -11 0
-11 -3 0 -17 12 -15 12 -16 -1 -8 -12 7 -13 6 -4 -6 5 -8 10 -32 10 -54 -1
-22 4 -43 9 -47 6 -5 6 -8 -1 -8 -13 0 -7 -48 8 -67 6 -7 3 -15 -9 -22 -11 -6
-13 -11 -5 -11 7 0 10 -4 7 -10 -3 -5 -3 -10 2 -10 4 0 8 -36 8 -80 0 -44 3
-80 8 -80 4 0 7 -5 7 -11 0 -5 -4 -7 -10 -4 -6 4 -7 -2 -2 -17 4 -13 8 -71 7
-130 0 -60 4 -108 9 -108 5 0 3 -6 -3 -14 -9 -10 -9 -16 -1 -21 8 -5 8 -11 -1
-21 -9 -11 -9 -14 0 -14 8 0 9 -5 2 -18 -7 -13 -7 -22 0 -29 8 -8 7 -13 -1
-18 -8 -5 -6 -13 7 -28 10 -11 13 -17 7 -14 -16 9 -25 -18 -11 -32 6 -6 8 -11
4 -11 -4 0 -3 -10 4 -21 9 -17 8 -20 -2 -14 -9 6 -11 3 -6 -8 4 -10 1 -17 -6
-17 -8 0 -7 -3 2 -9 12 -8 12 -12 2 -24 -8 -11 -9 -17 -1 -22 8 -5 8 -10 0
-20 -7 -9 -8 -15 -1 -19 7 -5 7 -15 1 -31 -7 -17 -6 -25 1 -25 8 0 8 -4 0 -14
-8 -10 -9 -16 -1 -21 6 -3 7 -12 3 -18 -4 -6 -7 -48 -8 -92 0 -44 -4 -86 -9
-94 -6 -10 -5 -12 3 -7 8 6 10 -2 6 -26 -7 -34 -14 -151 -18 -275 -1 -40 -4
-73 -7 -73 -3 0 -5 -21 -5 -47 0 -31 -5 -53 -15 -61 -8 -7 -10 -11 -3 -10 13
3 15 -6 8 -47 -3 -16 -6 -41 -8 -55 -1 -14 -6 -31 -11 -39 -6 -10 -5 -12 2 -7
7 4 12 3 12 -3 0 -5 -4 -12 -8 -15 -5 -3 -8 -18 -7 -33 1 -15 -2 -36 -7 -45
-5 -12 -5 -18 2 -18 5 0 10 -5 10 -11 0 -5 -5 -7 -12 -3 -8 5 -9 2 -5 -9 3 -9
3 -19 -2 -21 -4 -3 -7 -23 -6 -46 1 -22 -1 -40 -4 -40 -3 0 -6 -17 -5 -37 0
-21 -2 -42 -5 -48 -2 -5 -6 -21 -8 -35 -5 -42 -8 -55 -16 -67 -4 -6 -3 -14 2
-17 6 -4 4 -17 -4 -32 -7 -15 -11 -32 -8 -40 2 -7 1 -19 -3 -26 -4 -7 -10 -31
-12 -53 -2 -22 -7 -44 -11 -50 -4 -5 -7 -27 -6 -47 0 -21 -3 -38 -7 -38 -4 0
-6 -12 -4 -27 1 -16 -1 -33 -6 -39 -8 -11 -16 -46 -17 -77 -1 -10 -5 -16 -10
-13 -5 4 -7 -3 -4 -15 4 -12 0 -25 -8 -30 -11 -7 -11 -9 -1 -9 8 0 10 -5 5
-12 -4 -7 -9 -22 -10 -33 -2 -10 -9 -23 -16 -27 -9 -6 -9 -8 2 -8 9 0 10 -4 4
-12 -6 -7 -9 -21 -8 -30 2 -10 -1 -18 -6 -18 -6 0 -8 -4 -4 -9 3 -5 1 -12 -3
-15 -5 -3 -8 -17 -7 -31 2 -14 -1 -27 -5 -30 -5 -3 -7 -12 -3 -20 3 -8 1 -15
-5 -15 -6 0 -9 -8 -7 -17 1 -10 -4 -30 -12 -45 -7 -15 -13 -30 -13 -33 1 -28
-2 -35 -11 -29 -8 4 -8 0 0 -15 8 -15 9 -21 1 -21 -6 0 -9 -4 -5 -9 3 -5 1
-12 -4 -15 -5 -4 -13 -25 -17 -49 -4 -23 -9 -45 -10 -49 -1 -5 -2 -13 -3 -19
0 -5 -6 -7 -13 -3 -7 4 -8 3 -4 -4 9 -15 -12 -95 -28 -104 -8 -5 -7 -8 3 -8
11 0 11 -4 -1 -22 -8 -13 -14 -33 -13 -45 1 -12 -2 -20 -7 -17 -7 5 -12 -9
-10 -28 1 -3 -5 -11 -13 -18 -7 -6 -11 -18 -8 -26 3 -8 0 -21 -7 -29 -6 -8 -9
-19 -6 -24 4 -5 2 -12 -4 -16 -6 -4 -8 -11 -5 -16 4 -5 1 -9 -5 -9 -7 0 -10
-6 -8 -12 3 -7 -1 -24 -8 -37 -7 -14 -11 -28 -8 -33 3 -4 0 -8 -6 -8 -6 0 -9
-4 -5 -9 3 -5 -1 -15 -8 -23 -8 -7 -12 -19 -9 -27 2 -7 -1 -17 -8 -21 -8 -5
-15 -21 -17 -37 -2 -15 -4 -36 -5 -45 -1 -9 -6 -14 -10 -12 -4 3 -8 1 -8 -5 0
-5 -5 -22 -12 -38 -6 -15 -12 -32 -12 -36 -1 -4 -8 -12 -16 -17 -10 -7 -11
-10 -2 -10 9 0 9 -6 -3 -23 -8 -13 -12 -27 -8 -30 3 -4 1 -7 -6 -7 -7 0 -9 -4
-6 -10 3 -5 1 -10 -6 -10 -7 0 -10 -3 -7 -6 4 -3 0 -20 -7 -39 -8 -18 -11 -35
-8 -39 4 -3 2 -6 -4 -6 -5 0 -16 -19 -23 -42 -8 -24 -23 -56 -34 -72 -13 -20
-15 -27 -5 -22 7 4 6 1 -4 -7 -10 -9 -18 -19 -18 -24 0 -21 -12 -53 -21 -53
-6 0 -8 -9 -5 -20 3 -13 0 -20 -9 -20 -8 0 -14 -6 -13 -12 2 -21 -12 -58 -23
-58 -5 0 -7 -4 -3 -9 3 -5 1 -12 -5 -16 -5 -3 -10 -15 -10 -26 0 -10 -5 -19
-11 -19 -5 0 -7 -4 -4 -10 3 -5 1 -10 -4 -10 -6 0 -10 -3 -10 -7 1 -5 -4 -24
-12 -43 -7 -19 -12 -39 -11 -43 1 -5 -2 -6 -8 -2 -5 3 -10 -1 -10 -9 0 -9 -4
-16 -10 -16 -5 0 -10 -3 -9 -7 2 -16 -14 -53 -22 -53 -5 0 -8 -3 -7 -7 4 -14
-13 -53 -23 -53 -5 0 -9 -3 -8 -7 2 -16 -14 -53 -23 -53 -5 0 -7 -4 -3 -9 3
-5 -1 -16 -9 -24 -8 -8 -18 -26 -22 -41 -3 -14 -11 -26 -16 -26 -6 0 -8 -7 -4
-15 3 -9 0 -15 -9 -15 -9 0 -12 -8 -10 -20 2 -11 0 -18 -5 -15 -9 5 -26 -33
-22 -48 1 -5 -2 -6 -8 -2 -9 6 -14 -7 -11 -27 0 -5 -4 -8 -9 -8 -6 0 -10 -7
-10 -15 0 -8 -4 -15 -10 -15 -5 0 -10 -6 -10 -14 0 -8 -7 -22 -16 -30 -8 -9
-12 -16 -8 -16 4 0 -1 -9 -11 -20 -10 -11 -14 -20 -10 -20 4 0 -1 -8 -11 -18
-10 -9 -20 -24 -22 -32 -2 -8 -10 -22 -18 -31 -8 -9 -11 -19 -7 -22 3 -4 1 -7
-5 -7 -7 0 -12 -9 -12 -21 0 -13 -4 -18 -12 -13 -7 5 -9 2 -6 -7 6 -16 -16
-41 -28 -31 -4 4 -4 2 -1 -5 4 -6 1 -18 -7 -26 -8 -8 -12 -17 -9 -21 4 -3 1
-6 -5 -6 -7 0 -12 -7 -12 -15 0 -8 -4 -15 -10 -15 -5 0 -10 -5 -10 -11 0 -7
-8 -18 -17 -26 -12 -10 -13 -12 -3 -8 8 4 6 -1 -4 -9 -11 -9 -17 -16 -13 -16
4 0 -1 -10 -12 -22 -11 -11 -18 -25 -15 -30 3 -4 0 -8 -5 -8 -6 0 -11 -7 -11
-16 0 -9 -5 -12 -12 -8 -8 5 -9 2 -5 -9 4 -11 1 -17 -9 -17 -8 0 -13 -4 -10
-8 3 -5 -3 -18 -13 -28 -9 -11 -15 -26 -13 -34 3 -8 1 -12 -3 -8 -11 11 -38
-29 -29 -44 4 -7 3 -8 -4 -4 -6 3 -16 -3 -22 -14 -6 -11 -16 -17 -22 -14 -6 4
-8 3 -5 -3 4 -6 0 -24 -8 -39 -8 -16 -15 -25 -15 -21 0 4 -6 2 -14 -5 -8 -7
-14 -15 -13 -18 1 -15 -17 -39 -25 -34 -6 4 -9 1 -6 -6 2 -8 -3 -22 -11 -31
-36 -39 -46 -54 -44 -61 2 -5 -2 -8 -7 -8 -6 0 -10 -4 -10 -10 0 -16 -42 -60
-51 -54 -5 3 -6 -1 -4 -8 5 -13 -17 -43 -74 -105 -12 -12 -21 -27 -21 -32 0
-6 -9 -15 -20 -21 -11 -6 -19 -14 -17 -18 1 -4 -12 -22 -28 -40 -17 -19 -30
-37 -30 -40 0 -4 -9 -16 -20 -28 -41 -43 -75 -86 -75 -96 0 -5 -4 -6 -10 -3
-5 3 -10 1 -10 -5 0 -6 -16 -26 -36 -45 -20 -19 -33 -35 -30 -35 3 0 -4 -10
-16 -22 -13 -13 -27 -22 -31 -20 -5 1 -6 -1 -3 -6 3 -5 -17 -32 -43 -60 -27
-29 -47 -52 -45 -52 2 0 -21 -25 -51 -56 -30 -30 -55 -60 -55 -65 0 -6 -3 -8
-7 -6 -5 2 -16 -4 -25 -15 -10 -10 -15 -18 -10 -18 4 0 -6 -9 -23 -20 -16 -11
-25 -20 -20 -20 6 0 -2 -8 -18 -18 -15 -10 -24 -21 -21 -25 4 -4 -1 -9 -10
-13 -9 -3 -16 -13 -16 -21 0 -8 -3 -12 -7 -10 -10 6 -34 -19 -26 -27 4 -3 0
-6 -7 -6 -15 0 -60 -46 -60 -63 0 -7 -4 -6 -10 3 -5 8 -10 10 -10 4 0 -15 -77
-94 -91 -94 -5 0 -9 -3 -7 -7 2 -5 -9 -20 -24 -35 -15 -15 -28 -24 -28 -21 0
3 -11 -6 -25 -21 -14 -15 -25 -32 -25 -38 0 -6 -3 -8 -7 -5 -3 4 -19 -7 -35
-23 -15 -17 -30 -30 -33 -30 -2 0 -20 -16 -39 -35 -20 -19 -40 -35 -46 -35 -6
0 -8 -4 -5 -10 3 -5 1 -10 -6 -10 -6 0 -25 -13 -40 -30 -16 -16 -29 -27 -29
-24 0 3 -16 -9 -34 -27 -60 -58 -81 -76 -87 -75 -9 2 -39 -31 -39 -43 0 -6 -7
-7 -17 -4 -11 4 -14 3 -9 -5 4 -7 3 -12 -3 -12 -5 0 -22 -11 -37 -25 -14 -13
-31 -22 -37 -18 -5 3 -8 2 -5 -3 4 -8 -35 -53 -47 -54 -3 0 -10 0 -16 0 -5 0
-7 -5 -4 -10 3 -6 -1 -10 -9 -10 -8 0 -20 -8 -25 -17 -6 -10 -11 -15 -11 -11
0 7 -26 -14 -81 -65 -10 -9 -23 -17 -28 -17 -5 0 -11 -3 -13 -7 -1 -5 -21 -20
-44 -36 -22 -15 -50 -36 -61 -47 -12 -10 -23 -17 -26 -14 -2 3 -20 -9 -38 -26
-19 -16 -42 -33 -51 -36 -10 -3 -18 -10 -18 -15 0 -5 -7 -9 -15 -9 -8 0 -15
-5 -15 -10 0 -6 -11 -15 -25 -20 -14 -5 -25 -13 -25 -18 0 -10 -50 -37 -62
-34 -5 1 -8 -3 -8 -8 0 -6 -11 -15 -25 -20 -14 -5 -25 -14 -25 -20 0 -6 -4 -8
-10 -5 -5 3 -10 1 -10 -4 0 -6 -7 -11 -15 -11 -9 0 -18 -7 -21 -15 -4 -8 -10
-12 -15 -9 -5 3 -9 0 -9 -6 0 -6 -5 -8 -10 -5 -6 3 -13 -1 -16 -9 -3 -9 -14
-16 -25 -16 -10 0 -23 -9 -29 -20 -6 -11 -19 -20 -30 -20 -10 0 -23 -8 -29
-17 -5 -10 -11 -16 -13 -14 -7 8 -77 -42 -71 -52 3 -5 1 -7 -5 -4 -13 9 -44
-2 -37 -13 3 -4 -1 -8 -8 -7 -30 1 -48 -4 -43 -11 2 -4 -4 -14 -16 -21 -16
-10 -18 -10 -12 0 4 7 -8 1 -28 -14 -19 -15 -39 -27 -44 -27 -5 0 -20 -9 -34
-20 -14 -11 -33 -20 -43 -20 -10 0 -16 -3 -14 -8 3 -4 -24 -21 -59 -37 -35
-17 -64 -34 -64 -38 0 -5 -5 -5 -10 -2 -6 3 -13 0 -16 -9 -3 -8 -12 -12 -20
-9 -7 3 -16 -2 -20 -10 -3 -9 -12 -13 -20 -10 -7 3 -17 -2 -20 -11 -3 -9 -10
-13 -15 -10 -5 3 -22 -4 -38 -15 -15 -11 -31 -18 -35 -14 -3 3 -6 1 -6 -6 0
-7 -6 -11 -14 -8 -7 3 -20 -3 -29 -14 -9 -10 -25 -19 -36 -19 -10 0 -22 -7
-25 -16 -3 -8 -10 -13 -15 -10 -5 4 -16 -1 -25 -9 -8 -9 -19 -16 -23 -17 -4 0
-19 -5 -33 -11 -14 -6 -28 -10 -32 -9 -5 1 -8 -3 -8 -10 0 -6 -3 -8 -7 -5 -3
4 -20 -2 -38 -13 -18 -11 -35 -17 -38 -13 -4 3 -7 1 -7 -6 0 -7 -4 -9 -10 -6
-5 3 -10 1 -10 -5 0 -6 -4 -9 -9 -5 -5 3 -16 -2 -25 -10 -8 -9 -19 -16 -23
-15 -15 0 -48 -13 -53 -20 -3 -5 -14 -10 -25 -12 -11 -1 -26 -10 -33 -18 -8
-8 -11 -9 -7 -2 4 7 -8 4 -29 -8 -20 -11 -36 -17 -36 -15 0 3 -10 -1 -23 -10
-13 -8 -27 -12 -30 -8 -4 3 -7 1 -7 -6 0 -7 -4 -10 -9 -6 -5 3 -12 1 -16 -5
-4 -6 -11 -8 -16 -5 -5 4 -9 1 -9 -4 0 -6 -3 -10 -7 -10 -5 1 -11 0 -15 -1 -5
-1 -11 -3 -15 -5 -52 -14 -63 -19 -63 -28 0 -6 -3 -7 -7 -4 -3 4 -17 0 -31 -9
-13 -8 -30 -13 -38 -10 -9 3 -14 -1 -14 -12 0 -15 -2 -15 -10 -2 -7 12 -10 12
-10 1 0 -7 -6 -11 -15 -7 -8 3 -15 2 -15 -3 0 -8 -30 -19 -75 -28 -10 -2 -22
-7 -25 -12 -3 -4 -15 -7 -27 -6 -12 1 -21 -3 -20 -9 1 -6 -8 -10 -20 -8 -13 2
-23 -2 -23 -7 0 -6 -3 -10 -7 -10 -20 4 -73 -15 -73 -25 0 -6 -5 -4 -10 4 -7
11 -10 11 -10 2 0 -7 -4 -11 -9 -8 -5 3 -11 0 -14 -8 -4 -9 -15 -12 -33 -8
-18 3 -25 1 -20 -6 5 -8 -3 -11 -24 -8 -19 2 -33 -1 -36 -9 -7 -17 -44 -27
-44 -12 0 8 -3 8 -8 -1 -8 -12 -34 -21 -75 -26 -10 -1 -23 -9 -28 -17 -6 -10
-9 -11 -9 -1 0 10 -5 10 -20 2 -11 -6 -20 -7 -20 -3 0 4 -7 -2 -15 -13 -8 -10
-15 -14 -15 -8 0 7 -11 9 -25 6 -14 -2 -22 -8 -19 -13 3 -6 -6 -8 -20 -5 -13
2 -26 0 -28 -5 -2 -5 -18 -10 -36 -12 -17 -1 -32 -6 -32 -11 0 -4 -11 -6 -25
-4 -13 3 -22 1 -19 -3 5 -9 -5 -12 -38 -12 -10 0 -18 -3 -18 -6 0 -4 -10 -8
-22 -8 -20 -1 -54 -8 -68 -13 -3 -1 -9 -2 -14 -1 -4 1 -15 -4 -24 -11 -11 -9
-14 -9 -9 -1 5 9 0 8 -19 -2 -14 -7 -35 -12 -45 -10 -11 2 -19 0 -19 -5 0 -4
-12 -7 -26 -5 -14 1 -32 -4 -40 -12 -11 -11 -14 -12 -14 -1 0 9 -3 9 -8 2 -4
-6 -15 -10 -24 -8 -10 1 -18 -2 -18 -7 0 -6 -5 -7 -10 -4 -6 4 -24 0 -40 -9
-17 -8 -32 -10 -36 -5 -3 5 -13 5 -25 -2 -11 -6 -27 -8 -35 -5 -8 3 -14 1 -14
-4 0 -5 -9 -7 -20 -5 -11 2 -22 0 -25 -4 -2 -5 -16 -7 -30 -6 -14 2 -27 0 -29
-4 -3 -4 -23 -7 -46 -7 -28 1 -40 -3 -40 -13 0 -10 -3 -11 -14 -2 -9 7 -17 8
-20 2 -3 -5 -17 -8 -31 -6 -14 1 -25 -1 -25 -5 0 -11 -30 -7 -30 4 0 6 -5 4
-10 -5 -7 -11 -22 -16 -55 -14 -25 0 -45 -2 -45 -5 0 -3 -18 -6 -40 -5 -22 1
-40 -3 -40 -8 0 -5 -8 -3 -17 4 -11 10 -14 10 -9 2 7 -13 0 -14 -96 -16 -20
-1 -35 -4 -32 -8 2 -4 -14 -6 -36 -5 -23 2 -43 -1 -46 -6 -3 -4 -9 -6 -14 -3
-5 3 -19 1 -31 -6 -16 -8 -20 -8 -14 1 5 9 2 10 -11 3 -11 -5 -43 -9 -71 -9
-29 1 -53 -1 -53 -4 0 -3 -17 -5 -37 -4 -21 0 -44 -3 -50 -9 -9 -6 -13 -6 -13
1 0 6 -13 7 -32 3 -18 -4 -45 -6 -61 -5 -18 2 -25 -1 -21 -8 4 -7 2 -8 -5 -4
-18 12 -61 15 -61 5 0 -5 -5 -9 -11 -9 -5 0 -7 5 -3 12 5 7 3 8 -7 2 -8 -5
-48 -9 -89 -9 -42 -1 -82 -5 -89 -10 -10 -6 -12 -4 -6 6 8 12 6 12 -8 0 -12
-9 -17 -10 -17 -2 0 8 -5 9 -17 2 -9 -5 -26 -6 -37 -2 -19 6 -43 7 -56 1 -17
-6 -52 -5 -56 2 -3 5 -12 4 -19 -2 -9 -8 -15 -8 -20 0 -4 7 -13 7 -27 -1 -16
-9 -23 -8 -29 2 -5 8 -9 9 -9 3 0 -6 -16 -11 -35 -11 -22 0 -32 4 -28 11 4 6
0 5 -9 -2 -12 -9 -22 -10 -35 -4 -22 11 -45 4 -37 -11 3 -7 -2 -3 -10 7 -10
13 -16 15 -16 7 0 -11 -3 -11 -15 -1 -11 9 -15 9 -15 1 0 -8 -5 -9 -18 -2 -13
7 -23 6 -30 -1 -9 -9 -12 -9 -12 0 0 9 -5 10 -19 3 -10 -6 -21 -8 -24 -4 -3 3
-46 6 -94 7 -48 1 -93 5 -100 9 -6 4 -15 3 -18 -3 -5 -8 -11 -8 -20 0 -10 8
-14 7 -18 -2 -4 -10 -6 -10 -6 0 -1 6 -6 12 -12 12 -5 0 -7 -5 -3 -12 5 -7 3
-8 -6 -3 -7 5 -38 10 -69 12 -30 2 -57 6 -60 8 -2 3 -10 0 -18 -6 -9 -9 -13
-8 -13 0 0 15 -27 14 -33 -1 -4 -10 -6 -10 -6 -1 -1 7 -8 10 -18 6 -9 -4 -14
-2 -11 3 4 5 -23 9 -63 8 -38 -1 -69 2 -69 6 0 4 -7 7 -15 7 -8 0 -15 -5 -15
-11 0 -7 -3 -7 -8 -1 -9 13 -30 18 -69 16 -21 -1 -33 3 -33 11 0 8 -3 9 -8 3
-9 -13 -32 -17 -32 -6 0 5 -18 8 -40 7 -22 -1 -40 2 -40 7 0 4 -5 5 -11 1 -6
-3 -15 0 -20 7 -7 12 -9 12 -9 0 0 -11 -3 -11 -17 0 -14 12 -16 12 -8 0 6 -11
5 -12 -6 -5 -8 5 -21 9 -29 9 -8 0 -21 4 -27 8 -8 5 -13 4 -13 -3 0 -6 -4 -8
-10 -5 -14 9 -48 16 -95 20 -22 1 -42 4 -45 5 -3 1 -9 2 -14 1 -4 -1 -13 2
-20 7 -6 4 -21 7 -33 6 -13 0 -23 4 -23 10 0 6 -5 4 -10 -4 -7 -11 -10 -11
-10 -2 0 7 -4 10 -10 7 -5 -3 -19 -1 -31 6 -16 8 -20 8 -14 -1 6 -9 2 -9 -15
0 -12 7 -33 10 -46 7 -15 -2 -24 1 -24 8 0 6 -10 11 -22 10 -13 -1 -31 2 -40
7 -12 6 -18 5 -18 -2 0 -6 -5 -8 -12 -3 -14 8 -32 13 -65 16 -13 1 -23 5 -23
9 0 3 -11 5 -25 3 -14 -1 -25 1 -25 6 0 4 -8 8 -17 8 -17 0 -58 8 -58 11 0 2
-54 11 -72 12 -7 1 -13 4 -13 8 0 5 -22 10 -62 13 -10 1 -18 5 -18 10 0 5 -7
7 -15 4 -8 -4 -17 -2 -21 4 -3 6 -12 8 -19 5 -7 -2 -16 1 -19 9 -3 8 -13 11
-25 8 -13 -3 -21 -1 -21 6 0 7 -4 10 -9 6 -5 -3 -27 0 -48 8 -21 7 -47 12 -58
12 -11 0 -23 5 -27 10 -5 6 -8 5 -8 -3 0 -7 -5 -10 -10 -7 -6 4 -7 11 -4 17 4
6 0 6 -13 -1 -11 -6 -22 -8 -25 -6 -4 4 -112 17 -135 16 -18 -1 -29 -1 -105 2
-43 2 -68 -1 -68 -7 0 -7 -3 -8 -8 -1 -8 11 -52 15 -52 5 0 -3 -9 -6 -20 -6
-11 0 -20 4 -20 8 0 4 -7 5 -15 2 -8 -4 -13 -9 -11 -13 2 -3 -18 -6 -45 -5
-29 0 -49 -4 -49 -10 0 -6 -5 -4 -10 4 -5 8 -10 10 -10 4 0 -6 -10 -11 -22
-10 -13 1 -34 -4 -47 -11 -14 -6 -28 -10 -33 -7 -4 3 -14 2 -20 -3 -14 -8 -19
-10 -44 -12 -8 0 -12 -5 -9 -11 3 -6 -1 -7 -10 -4 -8 4 -26 -1 -40 -10 -13 -9
-31 -13 -40 -10 -9 4 -23 0 -33 -9 -18 -15 -61 -32 -74 -29 -5 1 -8 -3 -8 -9
0 -5 -4 -8 -9 -5 -5 4 -11 1 -13 -4 -2 -6 -13 -12 -26 -13 -12 0 -22 -7 -22
-14 0 -6 -9 -10 -20 -8 -11 2 -20 0 -20 -4 0 -10 -71 -46 -83 -43 -5 1 -6 -2
-3 -7 4 -5 -3 -12 -14 -16 -11 -3 -20 -11 -20 -16 0 -5 -7 -9 -15 -9 -15 0
-27 -8 -83 -60 -17 -15 -34 -25 -37 -22 -3 3 -5 0 -5 -6 0 -7 -6 -12 -14 -12
-8 0 -17 -9 -21 -20 -3 -11 -10 -19 -14 -17 -4 1 -46 -37 -93 -86 -47 -48 -83
-87 -80 -87 4 0 -1 -5 -11 -11 -9 -6 -15 -14 -12 -20 4 -5 2 -9 -4 -9 -5 0
-18 -13 -27 -29 -10 -17 -21 -28 -25 -26 -6 4 -14 -14 -17 -38 0 -5 -9 -15
-19 -23 -10 -7 -14 -14 -8 -14 5 0 -1 -7 -13 -16 -12 -8 -20 -20 -17 -25 4 -5
1 -9 -5 -9 -6 0 -9 -4 -5 -9 3 -6 -3 -14 -12 -20 -10 -6 -15 -11 -10 -11 4 0
0 -11 -9 -25 -9 -14 -12 -25 -8 -25 5 0 1 -5 -9 -11 -9 -6 -15 -14 -12 -19 3
-5 1 -11 -5 -15 -6 -4 -8 -11 -5 -16 4 -5 -1 -9 -9 -9 -10 0 -13 -6 -10 -15 4
-8 1 -15 -7 -15 -7 0 -9 -3 -6 -7 4 -3 2 -12 -4 -20 -6 -7 -8 -13 -4 -13 4 0
-4 -20 -18 -44 -18 -32 -22 -47 -14 -55 8 -8 7 -11 -2 -11 -8 0 -11 -7 -8 -20
3 -11 0 -18 -6 -17 -6 1 -12 -5 -13 -13 0 -8 -2 -17 -3 -20 -2 -3 -5 -16 -6
-30 -4 -27 -13 -65 -15 -65 -1 0 -4 -18 -6 -40 -3 -22 -9 -42 -15 -43 -6 -3
-6 -9 1 -17 7 -9 8 -15 1 -19 -6 -4 -8 -13 -4 -21 3 -8 2 -23 -2 -32 -12 -26
-13 -306 -2 -320 6 -9 5 -13 -4 -13 -11 0 -11 -2 1 -10 11 -7 11 -10 2 -10 -9
0 -10 -5 -4 -18 5 -9 8 -25 7 -34 -2 -10 0 -18 4 -18 6 0 8 -15 13 -97 1 -19
5 -30 11 -26 6 4 8 0 4 -10 -3 -10 -3 -17 2 -17 4 0 7 -10 6 -23 -1 -12 2 -28
8 -35 5 -6 6 -12 2 -12 -4 0 -2 -7 5 -15 6 -8 9 -19 5 -25 -3 -5 -1 -10 5 -10
6 0 9 -3 6 -8 -2 -4 4 -25 14 -47 10 -21 16 -45 13 -52 -3 -7 2 -13 10 -13 10
0 15 -7 12 -20 -2 -11 0 -20 4 -20 5 0 12 -10 16 -22 4 -13 8 -25 9 -28 11
-31 40 -79 46 -75 4 2 6 -7 4 -20 -1 -14 2 -23 7 -19 5 3 9 -2 9 -11 0 -9 4
-14 8 -11 4 2 9 -5 9 -17 1 -11 9 -25 18 -29 8 -5 13 -13 10 -19 -4 -5 -1 -9
4 -9 6 0 11 -7 11 -16 0 -8 5 -12 10 -9 6 3 10 -3 10 -14 0 -12 7 -21 16 -21
8 0 13 -4 9 -9 -3 -5 5 -17 17 -25 12 -9 19 -16 16 -16 -4 0 4 -12 17 -26 14
-15 22 -30 19 -35 -3 -5 2 -6 10 -3 15 6 21 -6 17 -29 -1 -5 3 -6 8 -3 5 4 12
-2 15 -12 4 -10 18 -25 31 -32 14 -7 25 -19 25 -26 0 -7 9 -16 20 -19 11 -4
18 -11 15 -16 -4 -5 0 -9 7 -9 8 0 20 -9 28 -20 8 -11 24 -20 35 -20 13 0 16
-3 8 -8 -8 -5 4 -18 35 -37 26 -16 51 -35 55 -42 4 -7 13 -13 18 -13 6 0 17
-7 26 -15 8 -8 19 -13 24 -10 5 4 9 -1 9 -10 0 -9 4 -13 10 -10 5 3 10 1 10
-4 0 -6 3 -10 8 -10 19 3 33 -2 27 -11 -3 -5 3 -10 14 -10 11 0 23 -5 26 -10
4 -6 10 -8 15 -5 4 3 11 -2 14 -10 3 -8 9 -14 13 -13 12 4 73 -26 73 -35 0 -5
5 -5 11 -2 5 4 18 0 28 -9 10 -9 22 -16 27 -14 5 1 18 -3 29 -9 11 -6 23 -11
28 -12 7 -1 11 -2 25 -6 4 -1 21 -5 37 -9 17 -4 38 -12 48 -17 10 -5 22 -7 27
-4 4 3 14 0 22 -7 7 -7 20 -14 28 -16 8 -2 17 -7 20 -10 3 -4 14 -8 25 -9 28
-2 63 -11 77 -19 7 -5 8 -3 3 7 -7 11 -6 12 7 2 8 -7 18 -10 21 -6 4 3 7 1 7
-5 0 -6 8 -11 18 -11 30 -1 61 -7 68 -13 3 -4 12 -4 20 -1 8 3 14 1 14 -4 0
-5 17 -10 38 -11 20 -2 38 -7 40 -12 2 -5 9 -7 17 -4 7 3 23 0 35 -6 18 -10
21 -10 14 2 -6 9 -2 9 16 -2 14 -9 37 -15 53 -15 15 1 27 -3 27 -8 0 -5 6 -7
14 -4 7 3 19 0 25 -6 8 -8 11 -7 11 3 0 11 2 12 8 3 4 -6 19 -13 34 -15 15 -2
30 -7 34 -11 4 -4 13 -2 21 4 9 9 13 8 13 0 0 -6 13 -11 29 -11 17 0 32 -4 35
-9 3 -4 17 -7 31 -6 14 2 25 -2 25 -8 0 -8 3 -7 9 2 6 9 11 10 15 2 4 -6 11
-9 16 -6 5 3 11 1 15 -5 4 -6 11 -7 17 -4 6 4 14 0 19 -7 7 -12 9 -11 9 1 0
13 1 13 10 0 8 -12 10 -12 10 -1 0 11 3 11 15 1 8 -7 22 -10 30 -6 8 3 15 2
15 -2 0 -8 31 -13 83 -15 15 0 27 -5 27 -11 0 -6 5 -4 10 4 5 8 10 10 10 4 0
-5 19 -11 43 -12 61 -4 67 -5 67 -12 0 -4 22 -7 49 -6 27 0 47 -2 45 -6 -3 -4
4 -7 13 -6 27 0 92 -10 103 -17 6 -3 10 0 10 7 0 8 3 9 8 2 4 -5 26 -10 49
-10 22 1 39 -2 37 -5 -3 -5 45 -11 89 -10 9 0 17 -6 17 -12 0 -8 3 -8 8 -2 9
13 32 18 32 7 0 -5 7 -9 15 -9 8 0 15 5 15 11 0 6 4 5 8 -2 6 -8 34 -13 75
-15 37 -1 67 -4 67 -8 0 -4 17 -5 38 -4 20 1 42 -2 49 -7 7 -6 14 -5 18 3 6 8
10 7 16 -2 7 -12 9 -11 9 0 0 11 4 10 16 -5 8 -10 13 -14 10 -7 -4 8 6 10 36
7 48 -5 150 -11 281 -18 49 -2 91 -7 94 -10 3 -3 12 -1 18 4 9 8 15 6 19 -6 6
-16 8 -16 25 0 16 15 19 15 31 1 11 -13 15 -13 22 -3 6 10 10 10 18 -2 7 -11
10 -11 10 -2 0 7 5 10 12 6 6 -4 53 -7 104 -7 51 0 91 -3 89 -7 -5 -9 27 -6
42 3 6 4 15 3 18 -3 5 -8 11 -7 21 1 11 9 14 8 14 -2 0 -12 2 -12 9 0 6 9 10
10 16 2 5 -9 10 -9 21 0 11 9 14 8 14 -2 0 -11 2 -11 10 1 9 13 10 13 10 0 0
-13 1 -13 10 0 9 13 10 13 10 0 0 -13 1 -13 10 0 9 13 10 13 10 0 0 -13 1 -13
10 0 9 13 10 13 10 0 0 -13 1 -13 10 0 9 13 10 13 10 0 0 -13 1 -13 10 0 8 12
10 12 10 1 0 -10 3 -11 13 -2 10 8 17 7 25 -1 9 -9 12 -9 12 0 0 10 5 10 20 2
15 -8 20 -8 20 2 0 10 2 10 9 -1 6 -9 10 -10 16 -2 5 9 10 9 21 0 11 -9 14 -9
14 1 0 9 4 9 17 -1 15 -12 16 -12 8 1 -8 13 -7 13 8 1 14 -11 17 -11 17 0 0
11 2 11 10 -1 7 -11 10 -11 10 -2 0 8 5 10 12 6 18 -12 48 -12 55 -1 3 5 9 3
14 -4 7 -12 9 -12 9 0 0 10 3 11 14 2 10 -9 16 -9 21 -1 5 8 10 8 20 0 10 -8
15 -8 20 0 5 8 11 7 23 -2 9 -7 13 -8 9 -2 -4 7 21 10 79 10 47 -1 88 2 90 5
2 4 16 4 30 1 21 -4 25 -2 19 9 -5 8 1 5 13 -5 12 -11 22 -14 22 -8 0 6 14 9
33 8 17 -2 38 1 45 7 8 6 12 6 12 -2 0 -7 5 -9 12 -5 6 4 34 8 62 8 28 1 56 5
63 9 6 4 15 2 19 -4 5 -8 9 -7 14 2 7 10 11 10 24 0 9 -8 16 -9 16 -4 0 4 24
9 53 10 28 1 61 4 72 6 11 2 28 0 39 -5 13 -7 16 -7 12 1 -5 8 6 10 34 8 23
-2 43 0 45 4 3 4 22 6 42 4 21 -1 41 3 46 9 5 8 10 7 17 -4 7 -11 12 -12 21
-3 6 6 18 9 25 6 8 -3 14 -1 14 5 0 5 16 7 36 5 20 -2 42 1 49 7 9 8 15 8 20
0 3 -6 12 -7 18 -3 19 12 36 12 43 2 3 -6 11 -5 20 2 7 6 28 13 46 15 96 10
119 13 139 19 16 6 20 4 13 -6 -6 -12 -5 -12 9 0 9 7 17 10 17 6 0 -4 8 -1 17
6 14 12 16 12 8 0 -6 -11 -5 -12 6 -5 8 5 22 7 32 6 9 -2 17 1 17 6 0 6 9 8
19 5 10 -3 29 1 41 7 12 7 20 8 17 3 -3 -5 3 -9 13 -9 10 0 16 4 14 8 -5 7 24
11 79 11 9 0 17 4 17 10 0 5 7 4 15 -3 12 -10 15 -10 15 0 0 7 7 10 15 7 8 -4
17 -1 21 5 4 7 9 6 15 -3 7 -12 9 -12 9 0 0 7 6 11 14 8 8 -3 17 -3 21 1 4 4
23 8 43 8 20 1 38 7 40 13 3 9 7 9 18 0 9 -8 14 -8 14 -1 0 6 9 9 20 7 11 -2
20 0 20 4 0 4 14 7 30 6 17 -1 33 2 36 6 2 5 11 6 19 2 8 -3 15 -1 15 4 0 5
14 8 30 7 17 -1 32 2 35 6 3 4 18 7 35 6 16 -1 30 2 30 7 0 5 7 7 15 3 8 -3
15 -2 15 2 0 5 10 8 23 9 28 1 64 10 79 19 6 4 8 3 5 -3 -3 -5 0 -10 8 -10 8
0 12 4 10 8 -3 4 17 10 45 14 27 4 50 10 50 13 0 4 12 8 28 9 28 2 77 10 77
13 0 3 40 11 65 13 14 1 28 6 31 11 4 4 21 9 38 10 17 0 31 3 31 6 0 3 8 7 18
8 33 4 51 8 58 14 3 4 13 4 22 1 8 -4 13 -2 10 3 -4 5 10 10 30 12 20 1 38 6
42 10 3 4 14 8 25 10 66 10 79 13 91 23 8 6 20 9 28 6 7 -3 17 -2 22 3 5 5 20
10 34 12 14 1 28 6 31 10 3 5 17 9 32 10 15 1 27 6 27 10 0 4 9 5 20 3 11 -2
20 0 20 6 0 5 3 8 8 8 4 -1 10 0 15 1 13 4 21 6 60 14 20 5 40 12 42 17 3 4
14 6 25 4 11 -2 20 0 20 6 0 5 11 9 24 9 14 0 28 5 31 10 4 6 10 8 15 5 5 -3
11 -1 15 5 4 6 11 8 16 5 5 -4 9 -2 9 4 0 6 7 8 15 5 8 -4 15 -1 15 6 0 6 8
10 18 9 9 -2 27 2 38 9 12 6 24 8 28 4 4 -3 10 -1 14 5 4 6 22 13 41 16 19 3
38 12 42 19 5 7 9 9 9 3 0 -5 5 -4 11 2 6 6 18 9 25 6 8 -3 14 -1 14 5 0 6 11
9 25 8 13 -2 22 1 19 5 -3 5 0 10 5 10 6 1 19 2 29 4 31 3 52 17 45 29 -4 6 1
5 10 -3 13 -10 17 -10 17 -1 0 7 7 10 15 6 9 -3 15 1 15 11 0 13 3 13 15 3 11
-9 15 -9 15 -1 0 7 5 9 10 6 6 -3 10 -2 10 2 0 5 20 14 44 21 23 8 55 20 71
28 15 7 31 11 36 8 5 -3 9 0 9 6 0 6 5 8 10 5 6 -3 10 -2 10 4 0 6 7 7 17 4
10 -4 14 -2 10 4 -4 6 9 13 33 17 22 3 40 11 40 17 0 5 5 7 10 4 6 -3 10 -1
10 5 0 6 4 8 10 5 5 -3 22 2 37 12 15 10 27 17 28 15 0 -7 40 12 47 22 5 7 8
6 8 -4 1 -11 4 -10 15 4 8 11 15 17 15 13 0 -4 10 -2 23 5 12 7 27 13 32 13
22 2 116 51 109 57 -3 4 3 4 14 1 11 -2 23 0 26 6 4 6 16 11 27 11 10 0 19 5
19 10 0 6 9 10 20 10 11 0 20 5 20 12 0 6 3 8 7 5 3 -4 12 -2 19 3 6 6 23 13
35 15 13 3 25 9 27 15 2 6 8 8 13 4 5 -3 9 0 9 6 0 6 4 9 9 5 5 -3 15 1 23 8
7 8 19 12 26 9 6 -2 15 3 18 12 3 9 10 13 15 11 5 -3 19 1 32 10 13 8 27 12
30 8 4 -3 7 -2 7 4 0 11 37 26 58 24 7 -1 11 4 10 11 -2 7 5 13 14 13 10 0 26
8 37 17 11 9 22 14 24 11 3 -2 16 3 29 11 14 9 28 13 33 9 4 -5 5 -3 2 3 -3 6
10 16 31 24 20 7 43 20 50 29 8 9 11 10 7 4 -9 -19 3 -16 27 7 12 10 25 17 30
14 4 -3 8 0 8 6 0 7 7 9 15 6 9 -3 18 1 21 9 4 8 10 12 15 9 5 -3 9 -1 9 4 0
6 13 15 30 21 17 5 30 15 30 20 0 6 7 8 15 5 8 -4 17 1 21 9 3 9 11 14 19 11
7 -3 19 2 28 10 8 8 17 12 21 9 3 -4 6 -1 6 6 0 7 5 9 10 6 6 -3 10 -1 10 4 0
6 7 11 15 11 9 0 18 7 21 15 4 8 10 12 15 9 5 -3 16 2 25 10 9 9 19 14 24 11
4 -3 11 3 14 12 6 15 8 15 16 3 8 -13 10 -12 10 3 0 9 5 17 12 17 6 0 20 8 31
18 15 12 18 13 12 2 -4 -8 3 -5 17 8 13 12 28 19 31 15 4 -3 7 -1 7 5 0 11 38
28 53 24 5 -1 6 2 2 7 -3 6 5 13 19 17 13 3 27 12 30 20 3 8 14 14 23 12 12
-2 17 2 15 12 -2 8 -1 12 3 8 8 -7 96 39 107 56 4 6 12 12 18 12 5 1 14 2 18
3 5 0 22 12 38 26 16 14 34 25 40 25 5 0 20 9 33 21 12 12 25 18 28 15 3 -3
13 3 23 14 9 10 23 20 31 22 8 2 23 12 34 24 12 11 26 19 31 17 6 -2 22 8 35
21 13 14 30 26 37 26 6 0 12 5 12 10 0 6 5 10 11 10 7 0 18 8 26 18 10 11 12
12 8 2 -4 -8 2 -5 13 7 11 12 23 19 27 15 3 -4 11 1 16 11 6 9 16 17 23 17 8
0 16 7 20 15 3 8 9 14 13 13 4 -2 18 6 31 17 12 11 28 20 35 20 7 1 11 6 10
13 -2 7 4 9 14 5 11 -4 14 -3 9 5 -4 7 -2 12 3 12 6 0 13 0 16 0 2 0 17 12 31
25 15 14 33 25 39 25 7 0 16 7 19 16 3 8 10 12 16 9 5 -3 10 1 10 10 0 9 5 13
10 10 6 -3 10 -1 10 4 0 6 6 11 14 11 8 0 16 7 20 15 3 8 12 15 20 15 7 0 17
7 20 16 4 9 9 14 13 11 3 -4 12 1 20 11 10 11 12 12 8 2 -4 -8 2 -5 12 6 10
12 41 37 70 57 29 19 49 37 46 41 -4 3 1 6 10 6 9 0 17 4 17 9 0 5 8 12 18 15
10 3 35 22 55 41 20 19 44 35 53 35 8 0 13 4 9 9 -3 5 4 13 16 16 11 4 33 20
48 36 16 16 34 29 40 29 7 0 9 5 5 12 -5 8 -2 9 10 5 10 -4 15 -3 11 3 -3 6 1
10 10 10 9 0 14 4 11 9 -6 9 22 26 37 23 4 -1 7 5 7 14 0 10 5 14 16 10 8 -3
12 -2 9 4 -3 6 -1 10 5 10 6 0 8 5 4 12 -4 6 -3 8 4 4 6 -3 19 4 29 17 10 13
24 22 31 19 6 -2 12 3 12 11 0 7 12 19 26 25 15 7 22 17 18 24 -4 6 -3 8 4 4
6 -3 18 4 26 16 9 12 16 19 16 16 0 -4 15 6 32 23 18 16 36 29 40 29 5 0 8 8
8 18 0 12 3 14 8 4 6 -9 12 -6 22 12 7 14 17 23 22 20 4 -3 8 3 8 12 0 10 3
14 6 11 4 -3 19 7 34 23 15 16 30 26 34 23 3 -3 6 1 6 11 0 9 5 14 10 11 6 -3
10 -1 10 5 0 6 5 8 12 4 6 -4 8 -3 5 3 -4 6 0 16 8 23 8 7 15 9 15 5 0 -3 12
7 26 24 14 17 30 29 35 26 5 -4 6 2 2 11 -4 12 -3 15 5 10 7 -4 15 -1 18 8 3
9 13 16 22 16 8 0 12 3 9 6 -7 8 31 44 45 44 5 0 7 4 3 9 -3 5 3 12 14 16 11
3 22 13 25 21 3 9 11 12 17 8 8 -5 9 -3 5 5 -5 8 0 14 13 18 11 3 20 8 18 12
-1 3 13 22 32 41 18 19 30 28 26 20 -4 -8 4 -1 19 15 14 17 25 34 26 38 0 5 4
6 8 3 4 -2 17 9 27 25 11 16 26 27 32 24 7 -2 12 1 10 8 -1 7 4 11 11 9 8 -1
11 2 7 8 -3 5 1 13 9 16 9 3 16 12 16 20 0 8 6 11 15 7 9 -3 15 -1 13 4 -2 5
18 30 44 55 26 25 44 49 41 52 -4 3 -1 6 5 6 18 0 52 32 45 43 -4 6 1 8 11 4
10 -4 15 -3 11 3 -3 6 1 13 9 16 9 3 16 12 16 20 0 8 7 14 16 14 8 0 13 3 11
8 -5 9 30 42 37 35 3 -4 6 -1 6 5 0 6 26 37 57 69 32 32 57 61 55 66 -1 4 3 7
8 7 6 0 10 7 10 17 0 9 3 14 6 10 4 -3 21 10 38 30 17 19 48 53 69 74 20 21
37 43 37 49 0 6 5 8 10 5 6 -3 10 -1 10 5 0 10 31 47 97 117 17 18 29 33 27
33 -3 0 6 10 19 22 13 13 26 31 30 41 4 10 12 15 17 12 6 -4 9 -3 8 2 -4 12
38 64 46 56 3 -3 6 1 6 9 0 9 11 26 25 39 13 13 25 29 25 34 0 6 9 16 21 23
12 7 19 16 16 19 -3 3 10 18 29 35 19 17 34 36 34 43 0 7 7 16 16 19 9 4 14 9
11 13 -4 3 4 16 18 28 13 13 21 26 18 29 -4 3 -1 6 5 6 7 0 12 7 12 16 0 8 4
13 8 10 5 -3 15 6 22 19 7 14 17 25 22 25 5 0 6 5 3 10 -3 6 -1 10 4 10 6 0
11 7 11 16 0 8 3 13 8 11 4 -3 18 12 31 34 14 21 28 36 33 33 4 -3 5 2 2 10
-4 9 1 18 10 22 9 3 16 15 16 26 0 14 5 18 15 14 14 -5 21 11 16 37 -1 5 2 6
7 3 5 -3 14 6 21 20 7 16 16 22 24 18 6 -4 9 -4 5 1 -11 11 11 47 24 39 7 -4
8 -3 4 4 -4 6 2 20 14 32 11 11 20 21 19 23 -3 11 15 35 24 30 5 -3 7 -2 4 4
-4 5 2 19 13 30 10 12 16 24 13 27 -4 3 -1 6 5 6 7 0 12 6 12 13 0 7 9 19 19
27 11 7 18 17 15 22 -3 4 0 8 5 8 6 0 11 7 11 15 0 8 8 15 18 16 11 0 13 2 4
6 -10 4 -8 9 7 20 12 8 21 21 21 29 0 8 5 14 11 14 5 0 7 4 4 10 -3 6 -1 10 4
10 6 0 11 7 11 16 0 9 5 12 12 8 7 -5 9 -2 5 8 -3 10 3 23 19 34 13 11 29 33
35 51 6 18 15 31 20 27 5 -3 9 -2 8 3 -3 12 18 60 31 68 5 3 7 11 4 17 -4 6
-3 8 3 5 6 -4 21 14 33 38 13 25 27 45 32 45 4 0 8 9 8 19 0 10 7 21 15 25 8
3 15 9 14 13 -3 20 2 34 10 29 5 -3 17 14 27 38 10 24 22 42 26 40 5 -3 8 4 8
16 0 11 7 23 15 26 8 4 13 10 10 14 -3 5 2 16 11 24 8 9 12 16 7 16 -4 0 1 7
11 15 11 8 16 15 12 15 -4 0 2 13 13 29 12 16 21 34 21 40 0 6 5 11 10 11 6 0
10 6 10 14 0 8 7 22 16 30 8 9 13 16 9 16 -3 0 6 17 20 37 14 21 25 43 25 49
0 6 7 17 15 24 9 7 14 19 11 27 -3 7 -1 13 4 13 6 0 22 25 37 54 15 30 30 53
33 51 4 -2 7 1 7 8 1 18 7 41 13 47 15 14 40 61 40 75 0 8 5 15 10 15 6 0 10
7 10 16 0 8 4 13 9 9 6 -3 8 6 5 21 -4 20 -1 25 9 21 7 -3 14 1 15 9 1 8 3 21
4 29 1 8 4 15 8 15 3 0 12 16 20 35 8 19 18 35 24 35 5 0 6 3 3 7 -4 3 4 26
18 50 14 23 22 43 18 43 -4 0 1 7 12 16 11 8 19 16 17 17 -2 1 2 16 9 32 7 17
12 33 11 38 -1 4 3 7 9 7 5 0 7 4 4 10 -3 6 -1 10 4 10 6 0 10 3 9 8 -1 4 9
30 22 57 13 28 24 52 25 55 0 3 7 16 15 30 8 14 15 27 15 30 4 21 18 50 25 50
4 0 7 11 6 25 -2 13 2 23 7 22 6 -1 12 3 12 8 4 30 18 65 27 65 6 0 8 7 4 15
-3 8 -1 15 4 15 6 0 10 5 10 10 0 6 7 27 17 48 9 20 17 41 17 45 1 4 8 12 16
17 10 7 11 10 3 10 -7 0 -13 5 -13 11 0 5 5 7 10 4 6 -3 10 0 10 7 0 7 7 26
15 42 8 15 12 32 9 37 -3 5 0 9 6 9 6 0 9 4 6 9 -3 5 1 14 9 21 7 6 11 18 8
26 -3 8 0 14 6 14 6 0 11 9 11 19 0 11 5 23 10 26 6 4 8 11 5 16 -4 5 1 12 10
15 12 5 13 9 5 14 -8 5 -6 12 7 25 10 10 16 20 15 22 -2 2 2 18 8 36 7 18 14
41 17 52 2 10 7 22 11 25 4 3 8 11 10 18 1 6 3 18 5 24 1 7 9 19 17 26 8 8 9
11 3 7 -7 -3 -13 -2 -13 4 0 5 5 11 10 13 6 2 12 13 13 26 0 12 5 22 9 22 4 0
8 8 8 18 0 9 7 29 14 45 11 19 12 27 3 27 -9 0 -9 2 -1 8 7 4 20 31 29 60 10
29 21 55 26 57 4 3 6 12 3 19 -3 8 -1 17 5 21 6 3 11 17 11 30 0 13 5 27 10
30 6 3 10 17 10 31 0 13 4 24 8 24 7 0 12 19 15 62 1 9 5 14 9 12 4 -3 9 4 9
15 2 37 4 42 14 49 9 6 12 18 18 75 0 9 4 17 7 17 3 0 6 10 7 22 1 11 6 24 10
27 5 3 9 13 9 21 0 8 3 22 7 30 5 12 21 66 33 113 1 4 3 9 4 12 1 3 3 9 4 14
0 5 4 13 8 17 4 4 2 14 -5 22 -6 9 -7 13 -2 10 6 -4 15 5 22 18 7 15 7 26 2
30 -6 4 -6 11 1 19 11 13 19 40 25 80 1 11 7 19 13 18 5 -1 8 6 5 16 -3 11 0
28 6 39 8 15 8 22 -2 25 -9 4 -9 6 1 6 6 1 12 13 12 27 0 14 4 23 8 20 4 -2 9
5 10 17 1 12 3 33 6 47 2 14 5 31 5 38 1 8 6 10 14 6 9 -6 9 -4 -1 8 -8 10 -9
19 -3 22 5 3 8 14 7 24 -2 9 1 19 5 22 5 3 9 20 11 38 1 18 6 32 10 32 4 0 5
9 3 20 -2 11 1 22 6 26 6 3 5 12 -3 22 -8 9 -8 13 -2 9 14 -8 26 17 18 37 -3
8 0 17 5 21 6 3 9 11 5 16 -3 5 0 17 8 26 11 14 11 16 -2 8 -11 -6 -10 -3 2
11 14 16 15 23 6 32 -9 9 -9 12 1 12 8 0 11 7 8 20 -3 11 -1 20 3 20 5 0 7 9
5 20 -2 11 -1 20 3 20 4 0 8 10 9 23 3 32 11 82 13 82 1 0 4 11 6 25 10 76 17
106 26 117 6 7 5 14 -2 18 -8 5 -8 11 0 20 7 8 9 19 6 24 -4 5 -2 12 3 15 5 3
8 21 7 40 -1 19 1 33 5 30 3 -2 6 9 7 24 1 39 5 56 17 64 6 5 5 8 -3 8 -8 0
-10 5 -5 13 4 6 8 19 10 27 11 75 14 101 16 138 2 31 6 41 16 37 10 -4 11 -2
4 7 -5 7 -8 22 -7 33 2 11 6 40 9 65 4 25 7 56 8 70 1 14 7 31 14 38 7 8 10
19 6 25 -6 10 -6 29 1 102 1 11 5 26 10 33 4 7 2 12 -5 12 -8 0 -8 4 -1 13 6
6 9 27 8 45 -1 18 1 35 6 38 5 3 5 10 2 16 -4 6 0 14 7 19 11 7 11 9 1 9 -10
0 -10 5 -2 20 8 15 8 20 -2 20 -8 0 -9 3 -3 8 6 4 10 31 10 59 0 29 3 53 6 53
3 0 5 12 3 27 -1 15 3 34 9 42 10 12 9 13 -3 6 -12 -7 -13 -6 -3 6 7 9 8 20 3
29 -5 8 -5 21 -1 29 4 9 6 26 5 38 0 13 3 23 9 23 5 0 4 7 -3 15 -10 12 -10
15 1 15 11 0 11 2 -1 10 -10 6 -11 10 -2 10 6 0 12 5 12 11 0 5 -5 7 -11 3 -8
-4 -8 -1 -2 12 5 11 9 47 9 81 -1 34 1 60 4 58 11 -7 6 40 -4 47 -7 5 -8 8 -1
8 6 0 12 36 14 88 1 48 3 114 4 147 1 33 6 66 11 74 6 10 5 12 -2 7 -14 -9
-15 -5 -2 28 6 17 6 27 -1 32 -8 4 -7 9 2 15 11 7 11 9 1 9 -9 0 -10 5 -2 19
7 14 7 22 -1 27 -8 4 -7 9 2 15 12 7 12 9 0 9 -10 0 -11 3 -2 14 9 10 9 16 1
21 -8 5 -8 11 1 21 9 11 9 14 -1 14 -10 0 -10 3 0 15 10 12 10 15 -1 15 -12 0
-12 2 0 9 9 6 10 10 2 16 -9 5 -9 10 0 21 9 11 8 14 -2 14 -12 0 -12 2 -1 9
17 11 17 21 0 32 -11 7 -11 9 1 9 10 0 11 3 2 14 -9 11 -9 16 0 21 8 6 7 10
-2 16 -12 7 -12 9 0 9 11 0 11 3 1 15 -10 12 -10 15 1 15 11 0 11 2 -1 10 -12
8 -12 10 -1 10 11 0 11 3 1 15 -10 12 -10 15 1 15 12 0 12 2 0 9 -9 6 -10 10
-2 16 9 5 9 10 0 21 -9 11 -8 14 2 14 12 0 12 2 0 9 -9 6 -10 10 -2 16 9 5 9
10 1 20 -8 10 -8 15 0 20 7 4 7 11 2 18 -5 7 -8 56 -8 109 1 54 -2 98 -5 98
-3 0 -4 11 -1 25 2 14 -2 33 -9 42 -9 10 -9 14 -2 10 9 -6 12 7 10 48 -1 30
-5 55 -9 55 -11 0 -5 23 7 32 7 5 7 8 0 8 -6 0 -10 30 -10 70 0 38 -3 70 -7
70 -5 0 -8 5 -8 11 0 5 4 8 9 4 6 -3 8 4 5 17 -3 13 -7 39 -9 58 -2 19 -6 47
-8 63 -2 15 0 27 6 27 6 0 2 7 -9 16 -10 8 -13 13 -7 9 16 -8 13 36 -2 47 -6
5 -5 8 3 8 8 0 10 5 5 13 -4 6 -8 30 -9 52 -1 22 -5 69 -9 105 -4 36 -7 73 -7
83 0 9 -2 15 -6 13 -4 -3 -8 4 -8 14 0 10 3 17 7 14 4 -2 6 4 4 13 -2 10 -4
18 -6 18 -1 0 -3 15 -3 32 -1 18 -5 35 -8 38 -3 3 -4 19 -2 35 2 17 0 30 -4
30 -5 0 -8 18 -7 40 1 22 -2 40 -5 40 -4 0 -6 12 -4 27 1 15 0 32 -4 38 -10
13 -9 37 2 54 6 9 5 12 -2 7 -6 -3 -13 -2 -17 4 -3 5 -1 10 6 10 8 0 8 4 2 13
-6 6 -9 20 -8 29 2 10 -1 20 -6 24 -5 3 -4 14 2 26 8 15 8 19 0 14 -10 -7 -16
19 -12 52 1 8 -3 19 -9 27 -8 10 -8 15 0 20 7 5 8 11 1 19 -5 6 -11 31 -12 54
-2 23 -6 42 -9 42 -4 0 -6 20 -6 44 1 24 -3 42 -8 38 -5 -3 -7 5 -3 17 3 12
-1 28 -10 36 -8 9 -10 15 -3 15 8 0 8 6 0 21 -7 11 -9 23 -7 26 3 3 0 21 -7
41 -7 21 -11 43 -9 50 3 7 -1 20 -9 29 -11 14 -11 16 1 8 11 -6 12 -5 5 6 -4
8 -10 21 -11 29 -10 49 -15 78 -18 100 -1 14 -6 24 -11 23 -5 -1 -8 15 -8 35
1 20 -2 42 -6 47 -4 6 -6 20 -5 33 1 12 -1 22 -4 22 -4 0 -8 12 -9 26 -1 15
-8 34 -15 42 -10 13 -9 14 3 7 13 -8 13 -7 1 8 -8 10 -11 20 -8 24 4 3 1 15
-5 27 -7 11 -11 25 -10 29 1 5 -3 27 -10 50 -6 23 -12 44 -12 47 -1 3 -4 10
-7 15 -4 6 -5 18 -4 28 2 9 -2 17 -8 17 -7 0 -5 5 3 10 11 7 11 10 2 10 -7 0
-11 4 -7 9 3 5 1 12 -4 16 -6 3 -8 12 -4 20 3 8 1 15 -5 15 -5 0 -10 11 -11
25 -3 48 -4 55 -14 55 -5 0 -7 6 -4 14 3 7 0 19 -6 25 -6 6 -7 11 -3 11 5 0 1
11 -8 25 -11 16 -12 25 -5 25 9 0 9 4 0 14 -6 8 -11 18 -10 22 2 10 -8 40 -22
68 -8 14 -8 16 3 10 11 -6 11 -5 0 8 -7 9 -14 27 -16 40 -1 13 -6 29 -10 36
-4 7 -9 22 -12 34 -7 31 -10 40 -18 60 -4 9 -5 22 -1 28 3 5 1 10 -4 10 -6 0
-11 11 -11 24 0 14 -4 28 -10 31 -5 3 -10 17 -10 31 0 13 -4 24 -9 24 -5 0
-12 7 -15 16 -3 8 -2 12 4 9 6 -3 10 -1 10 4 0 6 -5 11 -10 11 -6 0 -10 6 -9
13 1 6 -3 25 -10 41 -6 16 -9 31 -6 34 2 3 -3 11 -13 19 -10 9 -11 11 -2 7 12
-7 13 -5 3 8 -7 8 -10 18 -6 21 3 4 1 7 -5 7 -7 0 -12 9 -12 20 0 18 -19 70
-30 80 -3 3 -6 12 -7 20 -3 29 -12 59 -22 78 -6 11 -7 22 -4 26 3 3 2 6 -4 6
-9 0 -26 52 -27 85 -1 6 -7 14 -13 18 -7 4 -13 15 -13 23 0 8 -9 36 -19 62
-30 74 -34 86 -32 96 1 4 -6 15 -16 23 -10 8 -13 12 -6 9 7 -4 6 5 -4 24 -8
17 -12 37 -9 45 3 9 0 12 -10 8 -10 -4 -12 0 -7 13 4 10 2 15 -3 11 -6 -3 -10
2 -11 11 -1 9 -9 34 -17 54 -9 21 -17 41 -17 45 -1 5 -9 24 -20 44 -10 20 -15
39 -12 43 4 3 1 6 -5 6 -7 0 -12 7 -12 15 0 21 -22 65 -30 60 -4 -2 -6 7 -4
20 1 14 -2 25 -7 25 -6 0 -7 5 -4 10 3 6 1 10 -6 10 -7 0 -9 3 -6 7 4 3 -1 15
-10 26 -10 11 -12 17 -5 13 11 -7 11 -4 0 13 -7 12 -16 21 -21 21 -4 0 -6 4
-3 8 3 5 -1 20 -9 35 -7 14 -11 28 -7 31 3 3 0 6 -7 6 -7 0 -9 5 -6 10 3 5 1
10 -4 10 -6 0 -11 8 -11 18 0 10 -6 24 -12 31 -7 6 -13 15 -13 19 -2 20 -18
52 -26 52 -6 0 -8 8 -5 18 4 12 -1 26 -14 37 -11 10 -17 22 -14 26 3 5 -2 16
-10 25 -9 9 -14 20 -11 25 4 5 1 9 -4 9 -6 0 -11 7 -11 15 0 8 -5 15 -12 15
-6 0 -8 3 -5 6 3 4 1 16 -5 28 -7 11 -11 24 -10 29 1 4 -3 7 -9 7 -5 0 -7 5
-4 10 3 6 1 10 -4 10 -6 0 -11 9 -11 20 0 11 -4 20 -10 20 -5 0 -10 9 -10 20
0 11 -5 20 -11 20 -5 0 -7 5 -4 10 3 6 1 10 -5 10 -7 0 -10 7 -6 15 3 8 2 15
-3 15 -8 0 -45 67 -46 83 0 4 -6 11 -13 16 -8 5 -13 11 -12 15 4 14 -23 65
-31 60 -5 -3 -8 -2 -7 3 4 14 -13 53 -23 53 -6 0 -7 4 -4 10 3 5 -1 20 -10 33
-8 13 -12 27 -8 32 5 4 2 5 -4 1 -8 -4 -13 -1 -13 8 0 9 -5 16 -11 16 -5 0 -7
5 -4 10 3 6 1 10 -5 10 -6 0 -8 5 -5 10 3 6 3 10 -2 10 -4 0 -19 23 -32 50
-14 28 -29 50 -34 50 -4 0 -6 4 -2 9 3 5 0 15 -7 23 -7 7 -14 19 -15 25 -1 6
-14 28 -28 48 -13 21 -22 42 -18 48 3 6 1 7 -5 3 -7 -4 -12 -1 -12 7 0 7 -9
23 -20 35 -11 12 -20 30 -20 41 0 10 -7 21 -15 25 -8 3 -15 13 -15 21 0 9 -4
13 -10 10 -6 -3 -7 1 -4 9 3 9 1 16 -5 16 -6 0 -11 7 -11 15 0 8 -5 15 -11 15
-5 0 -7 5 -4 10 3 6 2 10 -4 10 -10 0 -27 38 -23 52 1 4 -5 5 -13 2 -10 -4
-13 0 -10 15 2 12 0 19 -6 16 -5 -4 -9 1 -9 9 0 9 -5 16 -11 16 -5 0 -7 5 -4
10 3 6 1 10 -4 10 -6 0 -11 6 -11 13 0 7 -9 23 -19 34 -11 12 -17 24 -14 27 4
3 2 6 -4 6 -6 0 -16 14 -23 30 -7 17 -16 30 -21 30 -5 0 -9 7 -9 15 0 7 -6 18
-14 22 -14 8 -16 12 -16 33 0 6 -8 10 -17 10 -14 0 -15 2 -5 9 11 7 11 9 -1
14 -9 3 -23 22 -32 41 -10 20 -21 36 -25 36 -4 0 -13 14 -20 30 -7 17 -17 30
-22 30 -5 0 -6 5 -3 10 3 6 1 10 -5 10 -6 0 -14 8 -17 18 -4 9 -15 26 -25 36
-10 11 -18 26 -18 33 0 8 -5 11 -12 7 -8 -5 -9 -2 -5 9 4 11 1 17 -9 17 -8 0
-12 5 -9 10 3 6 2 10 -3 10 -4 0 -16 16 -25 36 -11 21 -22 32 -29 28 -6 -4 -8
-3 -5 3 6 9 -2 21 -43 71 -6 6 -8 12 -4 12 4 0 -3 8 -14 19 -12 10 -22 23 -22
30 0 6 -4 11 -10 11 -5 0 -10 5 -10 11 0 7 -10 20 -22 30 -11 11 -18 19 -14
19 4 0 1 7 -6 15 -31 34 -38 45 -38 56 0 7 -3 10 -6 6 -8 -8 -64 75 -58 85 3
5 2 8 -3 7 -19 -3 -34 2 -28 10 3 5 1 12 -5 16 -6 4 -8 11 -5 16 4 5 -2 6 -12
2 -10 -3 -15 -3 -11 1 7 8 0 18 -34 57 -10 10 -18 23 -18 27 0 4 -9 14 -20 22
-11 8 -20 20 -20 27 0 6 -6 16 -13 20 -8 4 -28 28 -46 53 -18 25 -39 49 -47
53 -8 4 -14 13 -14 20 0 7 -9 18 -21 25 -12 7 -19 16 -16 19 3 3 -10 19 -29
36 -19 18 -34 38 -34 45 0 7 -5 10 -10 7 -5 -3 -10 -1 -10 5 0 6 -11 22 -25
36 -14 14 -25 29 -25 34 0 6 -7 10 -15 10 -8 0 -15 5 -15 11 0 6 -12 23 -27
39 -16 16 -39 43 -53 60 -14 17 -44 51 -68 75 -24 25 -40 45 -37 45 4 0 0 7
-9 15 -8 8 -20 15 -27 15 -7 0 -10 3 -6 6 8 8 -16 33 -25 27 -7 -4 -12 12 -9
30 0 4 -6 7 -16 7 -9 0 -14 3 -10 6 8 8 -16 33 -25 27 -5 -2 -8 3 -8 12 0 9
-4 13 -10 10 -5 -3 -10 -1 -10 5 0 6 -36 47 -80 90 -44 43 -80 84 -80 90 0 6
-3 9 -7 7 -8 -3 -58 44 -56 53 0 3 -3 4 -8 2 -5 -1 -9 4 -9 12 0 8 -9 18 -20
21 -11 3 -20 11 -20 16 0 14 -26 39 -40 39 -6 0 -9 4 -5 9 3 5 -4 12 -15 16
-11 3 -20 12 -20 20 0 8 -9 17 -20 20 -11 3 -20 13 -20 21 0 8 -7 14 -16 14
-8 0 -12 5 -9 10 3 6 -1 10 -10 10 -9 0 -13 5 -10 10 3 6 -3 10 -14 10 -12 0
-20 3 -20 8 3 20 -2 32 -13 29 -7 -1 -12 6 -12 15 1 10 -2 16 -6 13 -5 -3 -32
17 -61 45 -29 27 -56 50 -61 50 -4 0 -8 7 -8 17 0 9 -3 14 -6 10 -3 -3 -27 14
-52 39 -78 75 -84 79 -93 77 -5 -2 -9 4 -9 12 0 8 -12 23 -27 32 -26 17 -49
37 -130 114 -18 17 -33 28 -33 24 0 -4 -13 7 -29 24 -15 16 -31 27 -35 24 -3
-3 -6 1 -6 10 0 9 -7 17 -15 17 -9 0 -18 7 -21 15 -4 8 -10 13 -14 10 -5 -3
-11 4 -15 15 -4 11 -10 18 -15 15 -4 -3 -11 2 -14 11 -4 9 -9 14 -12 11 -3 -3
-22 11 -42 32 -21 20 -42 38 -47 41 -6 3 -9 9 -7 14 2 5 -4 6 -13 3 -8 -4 -15
-2 -15 3 0 6 -8 10 -17 10 -15 0 -16 2 -3 10 13 8 12 10 -3 10 -10 0 -20 7
-23 15 -4 8 -10 12 -15 9 -5 -3 -9 -1 -9 5 0 5 -9 13 -20 16 -11 3 -20 13 -20
21 0 8 -3 13 -7 13 -21 -3 -33 3 -33 17 0 8 -4 13 -9 9 -5 -3 -17 5 -25 17 -9
12 -16 19 -16 15 0 -8 -15 3 -55 41 -14 13 -25 20 -25 16 0 -4 -10 4 -23 17
-13 13 -28 25 -35 26 -7 2 -21 12 -32 23 -12 12 -26 18 -32 14 -6 -4 -8 -3 -5
3 4 6 -12 23 -36 39 -23 16 -48 35 -55 42 -8 7 -18 10 -23 6 -5 -3 -8 -2 -7 3
2 4 -2 10 -7 13 -6 2 -20 14 -33 27 -13 13 -28 23 -35 23 -7 0 -20 9 -30 20
-10 12 -23 18 -29 14 -6 -4 -8 -3 -5 3 3 5 -8 18 -26 28 -18 10 -36 25 -40 32
-5 7 -12 11 -17 8 -5 -3 -11 -1 -15 5 -4 6 -12 7 -18 3 -7 -4 -5 2 3 12 10 12
11 16 2 11 -8 -5 -20 0 -30 12 -9 10 -23 17 -29 15 -7 -3 -13 1 -13 8 0 7 -3
9 -6 6 -4 -4 -14 1 -23 11 -15 16 -38 31 -88 57 -13 7 -20 15 -16 18 3 4 -1 7
-10 7 -10 0 -17 5 -17 11 0 5 -5 7 -10 4 -6 -3 -13 1 -16 9 -3 9 -12 16 -20
16 -8 0 -14 4 -14 10 0 5 -3 9 -7 9 -21 -3 -33 2 -33 16 0 8 -3 14 -7 13 -14
-4 -53 13 -53 23 0 5 -7 9 -15 9 -8 0 -15 5 -15 10 0 6 -8 10 -18 10 -10 0
-25 9 -35 20 -9 11 -23 20 -31 20 -8 0 -21 8 -28 18 -7 9 -21 18 -32 20 -10 2
-28 12 -39 23 -11 10 -27 19 -34 19 -7 0 -13 5 -13 11 0 5 -4 8 -9 5 -5 -3
-14 1 -21 9 -7 8 -16 12 -21 9 -5 -3 -6 3 -2 13 6 16 5 16 -10 4 -15 -12 -17
-11 -17 3 0 9 -3 16 -7 15 -14 -2 -53 13 -53 20 0 4 -22 18 -50 32 -27 13 -50
28 -50 32 0 5 -4 6 -9 2 -5 -3 -15 0 -23 7 -20 19 -78 50 -78 42 0 -4 -9 3
-20 16 -11 13 -20 20 -20 15 0 -4 -6 -2 -13 4 -8 6 -17 8 -20 4 -4 -3 -7 -1
-7 5 0 7 -7 12 -15 12 -8 0 -15 5 -15 11 0 5 -4 8 -9 4 -6 -3 -14 2 -19 11 -5
9 -13 15 -18 15 -21 -2 -44 11 -38 21 4 6 2 8 -4 5 -10 -7 -94 31 -100 46 -2
4 -8 5 -13 1 -5 -3 -9 0 -9 6 0 7 -6 10 -12 7 -7 -2 -21 5 -30 16 -10 11 -18
15 -18 8 0 -7 -10 -3 -22 9 -21 19 -33 24 -52 21 -4 -1 -15 6 -25 16 -9 10
-25 20 -36 21 -11 2 -22 7 -25 12 -3 4 -22 13 -42 21 -21 7 -38 17 -38 21 0 4
-3 7 -7 6 -9 -2 -51 16 -104 43 -20 10 -39 16 -43 12 -3 -3 -6 1 -6 10 0 10
-6 14 -14 11 -7 -3 -20 1 -27 8 -8 7 -23 15 -34 16 -11 2 -22 7 -25 12 -5 7
-47 23 -63 25 -4 0 -12 7 -17 15 -5 8 -10 11 -10 6 0 -5 -8 -2 -17 5 -15 12
-16 12 -8 -1 7 -12 6 -13 -7 -3 -8 7 -18 11 -21 8 -4 -3 -5 -2 -2 2 7 8 -67
43 -77 37 -5 -3 -8 0 -8 6 0 6 -4 8 -10 5 -5 -3 -10 -1 -10 5 0 6 -4 8 -10 5
-5 -3 -10 -1 -10 5 0 6 -5 8 -10 5 -6 -4 -18 -1 -26 6 -9 7 -26 15 -37 16 -12
2 -23 8 -25 13 -2 6 -15 10 -28 10 -14 0 -23 4 -20 9 4 5 -2 8 -11 7 -10 -2
-24 4 -31 13 -8 9 -10 10 -7 2 5 -9 0 -8 -18 4 -15 9 -30 14 -36 11 -5 -3 -11
1 -15 9 -3 8 -12 12 -21 9 -10 -4 -15 0 -15 11 0 9 -5 13 -10 10 -12 -8 -80
16 -80 28 0 4 -5 5 -10 2 -6 -4 -17 -1 -25 5 -8 7 -15 10 -15 7 0 -3 -12 0
-27 8 -15 8 -30 12 -35 9 -4 -3 -8 0 -8 5 0 6 -9 11 -20 11 -11 0 -20 4 -20
10 0 5 -6 7 -14 4 -7 -3 -20 1 -27 8 -8 7 -21 13 -29 13 -8 -1 -19 2 -25 6 -8
5 -103 39 -125 44 -42 11 -59 19 -54 26 3 5 -2 6 -10 3 -8 -3 -25 0 -38 7 -13
7 -27 12 -32 11 -4 -2 -20 5 -33 14 -14 9 -23 11 -19 6 3 -6 -7 -4 -24 5 -17
8 -42 16 -57 18 -14 1 -28 6 -32 11 -3 5 -10 9 -16 10 -33 3 -75 18 -75 28 0
6 -5 4 -10 -4 -6 -10 -10 -11 -10 -3 0 7 -3 12 -7 11 -10 -2 -65 13 -78 21 -5
3 -19 6 -30 6 -11 0 -26 6 -33 15 -12 13 -12 13 -6 0 6 -12 5 -13 -7 -4 -8 7
-30 15 -49 20 -49 11 -49 11 -55 14 -3 1 -8 3 -12 4 -5 1 -14 5 -22 10 -10 7
-12 5 -7 -5 5 -9 3 -9 -6 1 -7 9 -21 14 -30 12 -10 -2 -18 0 -18 5 0 5 -11 10
-25 11 -55 5 -65 7 -65 12 0 7 -3 7 -50 12 -14 2 -28 6 -31 10 -3 5 -18 9 -35
10 -16 1 -34 5 -40 10 -6 4 -21 10 -35 12 -13 3 -24 5 -24 6 0 2 -47 10 -72
12 -13 1 -23 5 -23 9 0 3 -12 7 -26 7 -15 0 -29 4 -33 9 -3 4 -18 8 -33 8 -16
-1 -28 2 -28 6 0 5 -9 6 -20 4 -11 -2 -20 -1 -20 3 0 7 -27 13 -72 15 -10 1
-18 5 -18 10 0 5 -7 7 -15 3 -8 -3 -21 2 -30 10 -11 12 -15 12 -15 2 0 -8 -3
-9 -8 -3 -7 10 -13 11 -87 19 -22 3 -40 5 -40 6 0 4 -79 11 -146 14 -41 1 -80
5 -85 9 -6 3 -16 2 -24 -3 -9 -5 -19 -5 -27 2 -7 6 -13 6 -13 1z"/>
<path d="M9907 24904 c-3 -4 -32 -9 -64 -11 -32 -3 -61 -10 -65 -17 -5 -8 -8
-7 -8 3 0 9 -4 10 -12 4 -7 -6 -21 -9 -30 -8 -10 2 -20 -1 -24 -6 -3 -5 -10
-7 -15 -3 -5 3 -21 -2 -36 -11 -14 -9 -23 -12 -19 -7 4 6 -2 10 -13 9 -11 0
-17 -5 -14 -11 4 -5 -3 -7 -15 -4 -12 4 -20 2 -16 -3 3 -5 -6 -9 -20 -9 -14 0
-26 -4 -26 -8 0 -4 -12 -9 -27 -10 -16 -1 -29 -6 -31 -12 -2 -5 -10 -6 -18 -3
-8 3 -14 0 -14 -6 0 -6 -8 -11 -18 -11 -10 0 -27 -7 -38 -15 -10 -8 -27 -15
-36 -15 -9 0 -24 -7 -32 -16 -9 -8 -16 -12 -16 -8 0 3 -7 1 -15 -6 -8 -6 -20
-8 -26 -4 -7 4 -9 3 -6 -3 6 -9 -21 -27 -48 -32 -5 -1 -14 -9 -18 -17 -4 -8
-15 -14 -22 -14 -8 0 -15 -5 -15 -11 0 -5 -4 -7 -10 -4 -5 3 -10 2 -10 -3 0
-5 -23 -24 -52 -42 -28 -18 -58 -41 -66 -51 -9 -10 -19 -16 -24 -13 -4 3 -8
-2 -8 -10 0 -9 -4 -15 -8 -13 -4 1 -29 -19 -55 -45 -26 -27 -52 -48 -59 -48
-6 0 -9 -3 -6 -6 4 -3 -8 -20 -25 -38 -47 -50 -69 -76 -105 -129 -18 -26 -37
-47 -42 -47 -6 0 -10 -7 -10 -15 0 -8 -4 -15 -10 -15 -5 0 -7 -8 -3 -17 3 -10
3 -15 -1 -11 -11 10 -34 -14 -29 -29 3 -7 -2 -16 -11 -19 -9 -3 -14 -10 -11
-14 3 -5 -2 -15 -10 -23 -8 -9 -15 -23 -15 -31 0 -9 -5 -16 -11 -16 -5 0 -7
-4 -4 -10 3 -5 1 -10 -5 -10 -6 0 -8 -4 -5 -10 3 -5 1 -10 -6 -10 -6 0 -9 -8
-6 -20 3 -11 1 -18 -4 -14 -5 3 -9 -2 -9 -10 0 -9 -4 -16 -10 -16 -5 0 -10
-12 -10 -26 0 -16 -4 -23 -12 -18 -7 5 -8 3 -3 -6 5 -8 1 -18 -10 -27 -11 -7
-14 -13 -7 -13 8 0 7 -10 -3 -34 -8 -18 -11 -36 -8 -40 4 -3 2 -6 -4 -6 -6 0
-13 -14 -16 -30 -6 -29 -13 -59 -17 -70 -1 -3 -1 -13 0 -24 1 -10 -2 -16 -7
-13 -5 3 -8 -15 -8 -40 0 -25 -3 -47 -8 -50 -4 -2 -5 -8 -2 -13 3 -5 2 -11 -3
-14 -5 -3 -8 -21 -7 -41 0 -19 -4 -35 -10 -35 -5 0 -3 -5 5 -10 8 -5 10 -10 5
-10 -12 0 -14 -259 -2 -277 4 -6 1 -14 -5 -16 -9 -4 -10 -8 -3 -14 6 -4 10
-29 10 -55 0 -27 4 -48 10 -48 5 0 10 -17 10 -37 0 -21 4 -49 9 -62 6 -18 5
-22 -5 -16 -9 5 -8 1 2 -11 9 -10 14 -25 11 -33 -3 -10 0 -11 9 -5 12 7 12 5
0 -9 -9 -11 -10 -17 -2 -17 6 0 11 -8 11 -18 0 -10 3 -22 7 -26 4 -4 9 -19 11
-34 2 -15 8 -29 13 -30 6 -3 4 -11 -3 -20 -8 -9 -8 -13 -2 -9 14 8 27 -20 17
-35 -3 -7 -1 -8 5 -4 7 4 12 1 12 -9 0 -9 9 -34 20 -55 11 -22 18 -40 15 -40
-3 0 4 -9 15 -20 12 -12 18 -25 15 -30 -4 -6 -2 -10 3 -10 6 0 13 -11 16 -24
3 -14 12 -31 19 -38 16 -18 34 -46 49 -78 7 -14 21 -33 32 -42 10 -10 16 -18
13 -18 -4 0 1 -8 11 -18 35 -38 50 -60 45 -66 -4 -3 1 -6 10 -6 9 0 17 -6 17
-13 0 -7 9 -18 20 -25 11 -7 20 -19 20 -27 0 -8 5 -15 10 -15 13 0 50 -37 50
-50 0 -5 7 -10 15 -10 8 0 15 -4 15 -9 0 -5 22 -26 50 -47 27 -20 46 -42 43
-47 -3 -6 -1 -7 4 -4 9 6 20 -1 69 -42 7 -5 15 -7 18 -4 3 4 6 -1 6 -10 0 -9
5 -19 12 -23 7 -5 8 -3 3 7 -5 8 1 5 13 -5 12 -11 22 -15 22 -10 0 5 5 1 11
-8 5 -10 17 -18 24 -18 8 0 15 -5 15 -12 0 -6 3 -8 6 -5 4 3 18 -2 32 -13 13
-11 28 -17 33 -14 5 3 9 0 9 -5 0 -6 8 -11 19 -11 10 0 24 -7 31 -15 7 -8 16
-12 21 -9 5 3 9 0 9 -6 0 -7 8 -9 21 -5 15 5 19 4 15 -4 -6 -10 6 -15 27 -12
4 0 7 -4 7 -10 0 -6 7 -9 15 -5 8 3 15 2 15 -2 0 -4 16 -12 35 -18 19 -6 32
-7 28 -1 -3 5 6 2 20 -7 13 -9 34 -19 46 -21 11 -3 31 -8 44 -11 12 -3 28 -6
35 -6 6 -1 12 -4 12 -8 0 -4 11 -6 25 -5 14 2 25 0 25 -3 0 -4 11 -8 25 -8 14
-1 22 2 20 7 -3 4 5 2 19 -5 14 -7 41 -12 60 -11 20 1 36 -2 36 -8 0 -5 6 -5
13 2 8 6 17 8 20 4 13 -12 77 -12 70 1 -5 8 -3 8 8 0 16 -13 108 -13 128 0 10
6 12 6 7 -2 -4 -7 -1 -12 9 -12 10 0 13 5 9 13 -6 9 -5 9 7 0 12 -10 18 -10
27 -1 9 9 12 9 12 0 0 -8 7 -9 24 -2 14 5 34 7 45 5 11 -2 23 0 26 5 3 5 16 7
30 4 13 -2 26 0 29 4 3 5 19 8 36 7 16 -1 30 2 30 7 0 6 6 8 13 5 6 -2 23 1
37 8 14 7 35 11 47 10 13 -1 30 7 39 17 13 14 20 15 31 7 9 -9 13 -9 13 0 0 6
9 11 20 11 11 0 20 4 20 10 0 5 3 9 8 9 20 -4 71 15 65 24 -4 6 0 8 10 4 8 -3
21 0 27 8 6 8 19 11 27 8 11 -4 14 -2 9 5 -5 8 0 12 13 12 11 0 23 5 26 11 4
6 14 8 22 5 8 -3 12 -2 9 2 -3 5 12 17 32 27 20 10 48 28 61 39 14 13 21 15
16 6 -5 -8 4 -3 19 12 16 15 33 25 39 21 5 -3 7 -1 4 4 -7 11 20 28 37 24 5
-1 6 5 2 14 -3 9 -2 14 3 10 5 -3 17 2 25 11 9 8 16 12 16 7 1 -4 7 3 15 17 8
14 14 21 15 16 0 -5 15 7 34 26 19 20 37 34 40 31 2 -2 7 5 11 16 3 12 10 19
15 16 5 -3 11 4 15 15 3 11 11 19 18 17 6 -1 11 3 12 8 0 14 35 62 35 50 0 -6
10 5 21 23 12 17 25 32 30 32 5 0 9 7 9 15 0 8 4 15 9 15 5 0 13 9 16 20 4 11
11 18 16 14 5 -3 9 -2 8 3 -3 17 14 53 22 47 5 -2 11 7 15 21 3 14 10 25 15
25 5 0 9 7 9 15 0 8 5 15 11 15 5 0 8 4 5 9 -3 5 1 14 9 21 8 7 12 16 9 21 -3
5 0 9 6 9 7 0 10 6 7 14 -3 8 1 17 9 20 9 3 12 10 9 16 -3 6 1 13 9 16 9 3 14
10 11 14 -3 4 6 28 20 53 13 25 27 62 31 81 3 20 9 34 13 32 6 -4 11 14 14 57
1 9 5 17 10 17 4 0 6 4 2 9 -3 5 -1 12 4 16 5 3 8 14 6 25 -2 11 1 20 7 20 5
0 8 6 5 14 -3 7 0 19 6 26 9 10 9 11 -2 5 -10 -6 -12 -4 -6 5 9 15 23 76 31
135 10 83 11 350 1 363 -6 8 -6 12 3 12 8 0 9 4 3 13 -5 6 -9 26 -8 42 0 17
-2 35 -7 41 -4 6 -9 35 -11 65 -2 30 -10 69 -19 87 -10 19 -12 29 -5 25 7 -4
7 0 -1 10 -8 9 -11 21 -7 27 3 5 1 10 -5 10 -7 0 -10 7 -6 15 3 8 1 15 -5 15
-6 0 -8 4 -5 8 3 5 -1 20 -9 35 -8 15 -12 27 -9 27 2 0 -4 12 -13 27 -10 15
-12 24 -5 19 14 -9 -21 59 -47 88 -10 13 -11 17 -2 11 16 -9 8 7 -18 39 -13
16 -13 18 -1 11 8 -4 5 3 -8 17 -12 13 -19 28 -15 31 3 4 1 7 -5 7 -7 0 -12 7
-12 16 0 8 -4 12 -10 9 -6 -3 -7 1 -4 9 3 9 1 16 -4 16 -12 0 -28 39 -23 55 1
5 0 7 -4 3 -7 -7 -35 15 -35 27 0 14 -47 74 -53 68 -4 -3 -7 4 -7 16 0 12 -4
19 -10 16 -5 -3 -10 1 -10 10 0 9 -9 19 -20 22 -11 3 -17 9 -14 14 3 5 1 9 -5
9 -5 0 -13 9 -16 20 -4 11 -11 18 -16 15 -5 -4 -9 -1 -9 5 0 6 -5 8 -12 4 -7
-4 -8 -3 -4 4 4 6 -5 22 -20 34 -15 13 -34 31 -43 41 -8 9 -22 17 -30 17 -8 0
-12 3 -8 6 7 7 -24 38 -46 47 -9 3 -17 11 -17 17 0 5 -6 10 -14 10 -7 0 -27
14 -44 30 -18 17 -35 29 -38 29 -6 -2 -36 17 -58 36 -6 6 -18 11 -26 13 -8 2
-18 9 -22 15 -4 7 -8 8 -8 2 0 -7 -3 -7 -8 0 -4 6 -16 17 -26 25 -18 13 -19
13 -11 0 6 -10 2 -10 -12 3 -11 10 -31 20 -43 22 -13 3 -26 8 -29 13 -3 4 -25
14 -48 22 -24 7 -43 16 -43 20 0 4 -12 10 -27 13 -63 12 -88 19 -98 27 -6 5
-23 10 -37 12 -15 2 -30 7 -34 10 -3 4 -12 4 -20 1 -8 -3 -14 -1 -14 4 0 5
-13 8 -30 7 -16 -1 -30 1 -30 5 0 4 -9 7 -20 8 -13 1 -18 -2 -13 -10 5 -9 3
-9 -8 0 -8 6 -28 13 -46 16 -17 3 -37 8 -42 12 -6 3 -11 2 -11 -4 0 -7 -8 -7
-26 -1 -32 13 -37 13 -28 -1 5 -8 1 -8 -14 0 -27 14 -35 14 -26 -1 5 -8 3 -8
-7 -2 -20 13 -199 13 -191 -1 3 -5 -1 -4 -10 2 -8 7 -18 10 -21 7z"/>
<path d="M10042 18021 c-6 -4 -43 -6 -81 -6 -48 1 -68 -2 -64 -9 4 -6 -1 -5
-10 3 -9 7 -17 9 -17 4 0 -6 -12 -9 -27 -8 -16 1 -36 -2 -45 -7 -13 -6 -18 -5
-18 4 0 10 -2 10 -9 -1 -5 -7 -28 -16 -52 -18 -24 -2 -52 -5 -61 -6 -10 -1
-18 -5 -18 -10 0 -4 -4 -5 -10 -2 -5 3 -10 2 -10 -3 0 -6 -10 -8 -22 -4 -14 3
-19 1 -14 -6 4 -6 -1 -11 -11 -10 -25 0 -58 -9 -82 -22 -12 -6 -21 -8 -21 -4
0 3 -6 1 -13 -5 -8 -6 -17 -8 -20 -4 -4 3 -7 1 -7 -5 0 -7 -9 -12 -20 -12 -11
0 -20 -5 -20 -11 0 -6 -6 -9 -14 -6 -8 3 -16 2 -18 -4 -2 -5 -13 -11 -26 -14
-30 -5 -43 -15 -37 -26 3 -5 -1 -6 -9 -3 -9 3 -16 2 -16 -4 0 -6 -8 -9 -17 -8
-10 2 -26 -6 -36 -17 -10 -12 -25 -22 -35 -23 -9 -2 -18 -8 -20 -13 -2 -6 -9
-11 -16 -11 -6 0 -27 -13 -46 -30 -19 -16 -41 -29 -48 -30 -7 0 -11 -4 -8 -9
3 -4 -10 -17 -29 -27 -19 -10 -35 -22 -35 -25 0 -4 -15 -16 -32 -28 -18 -11
-30 -21 -25 -21 4 0 -1 -8 -10 -18 -10 -11 -20 -18 -23 -16 -3 1 -11 -4 -18
-12 -7 -8 -11 -14 -9 -14 3 0 -19 -24 -47 -53 -29 -29 -50 -59 -48 -65 2 -8
-2 -10 -13 -6 -9 4 -15 3 -14 -2 3 -20 -2 -35 -10 -30 -5 3 -14 -7 -21 -23 -6
-16 -18 -32 -27 -35 -8 -3 -11 -10 -8 -16 3 -5 -2 -10 -12 -10 -14 0 -15 -2
-5 -9 11 -7 11 -9 -2 -14 -9 -4 -16 -13 -16 -22 0 -8 -4 -15 -10 -15 -5 0 -10
-9 -10 -19 0 -11 -8 -26 -19 -33 -10 -7 -17 -21 -15 -31 1 -10 -2 -14 -9 -10
-7 4 -8 0 -4 -11 4 -9 3 -15 -2 -12 -5 3 -17 -17 -27 -44 -10 -28 -22 -50 -27
-50 -5 0 -7 -6 -4 -14 3 -8 2 -16 -4 -18 -5 -2 -11 -13 -13 -25 -3 -12 -9 -30
-14 -40 -5 -10 -8 -26 -7 -36 2 -9 0 -15 -5 -12 -4 3 -10 -2 -14 -10 -3 -8 0
-15 7 -15 9 0 9 -3 -1 -9 -7 -4 -14 -18 -15 -29 -1 -12 -5 -22 -9 -22 -4 0 -6
-17 -5 -39 2 -26 -1 -37 -9 -34 -9 3 -12 -8 -10 -36 2 -22 -1 -38 -5 -35 -5 2
-7 -11 -5 -31 1 -20 -1 -38 -5 -41 -5 -2 -5 -12 -2 -21 5 -11 3 -14 -6 -8 -10
6 -11 3 -2 -12 6 -11 7 -24 3 -27 -10 -11 -10 -278 0 -298 6 -13 5 -18 -4 -18
-9 0 -10 -2 -2 -8 7 -4 12 -20 11 -37 0 -16 4 -39 8 -49 7 -15 5 -17 -6 -11
-12 7 -12 6 -1 -7 7 -9 14 -33 15 -52 1 -20 5 -36 9 -36 4 0 7 -8 7 -17 1 -36
5 -53 11 -53 5 0 9 -18 12 -57 1 -7 5 -13 10 -13 5 0 6 -5 3 -10 -4 -6 -2 -16
3 -23 5 -7 8 -20 7 -30 -2 -9 1 -15 6 -11 8 4 10 0 9 -21 0 -3 7 -19 16 -36 8
-17 17 -41 20 -52 2 -12 8 -23 14 -25 5 -2 10 -10 10 -18 0 -10 5 -12 13 -8 8
5 8 3 -2 -9 -11 -14 -11 -18 3 -23 9 -3 13 -10 10 -15 -3 -5 -1 -9 5 -9 5 0
15 -16 22 -35 7 -19 17 -35 22 -35 4 0 5 -5 2 -10 -3 -6 1 -13 9 -16 9 -3 13
-10 10 -15 -3 -5 0 -9 6 -9 6 0 8 -4 5 -10 -3 -5 2 -10 11 -10 10 0 14 -3 11
-6 -6 -7 50 -86 65 -92 5 -2 8 -10 8 -17 0 -7 15 -26 34 -43 19 -17 32 -33 29
-36 -4 -3 -1 -6 6 -6 7 0 9 -4 6 -10 -3 -5 0 -10 7 -10 7 0 29 -18 48 -39 18
-22 38 -37 43 -34 6 3 8 2 5 -3 -6 -10 48 -65 56 -57 3 3 8 -2 12 -11 3 -9 12
-16 19 -16 7 0 15 -7 19 -15 3 -8 21 -23 40 -32 19 -9 33 -20 30 -24 -3 -5 7
-11 21 -15 14 -3 25 -10 25 -16 0 -5 5 -6 10 -3 6 3 10 2 10 -3 0 -5 14 -15
30 -22 17 -7 30 -17 30 -22 0 -5 5 -6 10 -3 6 3 10 1 10 -6 0 -7 3 -9 6 -6 4
4 19 -2 34 -13 15 -11 30 -17 34 -13 3 3 6 1 6 -6 0 -7 4 -10 9 -7 5 4 11 2
13 -4 1 -5 15 -11 31 -12 15 -1 27 -6 27 -10 0 -4 7 -8 16 -8 9 0 12 -5 8 -12
-4 -7 -3 -8 5 -4 6 4 18 2 26 -4 8 -7 15 -9 15 -5 0 4 7 2 15 -5 12 -10 15
-10 15 1 1 10 3 9 10 -3 6 -9 20 -15 34 -14 14 2 27 -3 30 -10 3 -7 13 -10 25
-7 13 3 21 1 21 -8 0 -7 3 -10 6 -7 3 3 29 -1 57 -9 29 -8 72 -15 97 -17 25
-1 50 -4 55 -8 6 -3 18 -4 28 -3 9 2 17 -2 17 -8 0 -6 7 -2 15 9 13 16 14 16
9 2 -3 -10 -1 -18 5 -18 6 0 11 6 11 13 0 8 4 7 10 -3 7 -11 10 -11 10 -2 0 8
5 10 12 6 13 -8 228 -12 228 -4 0 4 49 8 118 10 12 0 22 6 22 12 0 9 3 9 12 0
8 -8 17 -8 30 -1 11 6 24 8 31 6 7 -2 18 3 25 12 8 9 11 10 7 4 -7 -14 7 -18
19 -6 7 7 31 14 59 16 9 1 17 5 17 10 0 5 7 7 15 3 8 -3 15 -2 15 3 0 4 6 8
13 9 12 1 47 9 57 12 3 1 8 2 13 1 4 0 7 4 7 10 0 5 4 8 9 4 5 -3 15 1 23 8 7
8 21 13 31 11 9 -1 17 1 17 6 0 8 38 23 53 21 4 -1 7 3 7 9 0 5 7 10 15 10 8
0 15 5 15 10 0 6 5 10 11 10 5 0 7 -6 4 -12 -4 -7 2 -4 12 8 10 11 23 21 28
23 33 9 74 35 68 44 -4 6 -1 7 7 2 7 -4 16 -2 21 6 4 8 13 15 19 15 5 1 15 2
20 3 6 0 10 8 10 17 0 8 5 12 10 9 6 -3 10 -1 10 6 0 7 3 10 6 6 3 -3 17 6 30
20 13 14 24 22 24 18 0 -4 9 2 20 15 11 13 20 19 20 14 0 -5 5 -1 11 9 6 9 15
15 20 11 5 -3 8 -2 7 3 -2 5 13 24 32 43 19 19 34 38 33 42 -2 4 4 5 13 1 8
-3 14 -1 12 4 -2 5 8 20 22 34 31 31 80 90 100 119 23 33 42 57 34 41 -5 -10
-3 -12 5 -7 7 5 10 10 7 13 -9 9 14 44 24 38 6 -3 7 1 4 9 -3 9 -2 16 4 16 6
0 15 14 21 30 5 17 15 30 20 30 6 0 10 3 9 8 -4 13 13 52 21 48 4 -3 8 5 8 17
1 12 8 26 15 32 7 5 13 15 14 20 3 25 17 55 26 55 6 0 7 7 4 15 -3 9 1 18 9
21 8 4 12 10 10 15 -3 5 1 21 9 37 8 16 12 32 9 36 -4 3 -1 6 4 6 6 0 10 8 9
18 -2 9 1 19 5 22 5 3 9 20 11 38 1 17 7 33 14 36 7 2 9 16 7 30 -3 14 -1 32
5 39 5 6 9 31 8 54 -1 29 2 39 10 33 7 -7 10 8 8 50 -1 33 2 63 7 66 5 3 9 10
9 15 0 6 -6 7 -12 3 -10 -6 -10 -4 -2 7 8 9 10 64 8 164 -3 148 -4 165 -19
235 -4 19 -7 44 -7 55 1 10 -4 26 -11 34 -10 12 -9 13 3 6 12 -6 13 -5 3 6 -7
7 -13 26 -13 41 0 15 -4 28 -8 28 -4 0 -9 8 -10 18 -2 21 -7 42 -15 62 -18 49
-42 116 -43 123 -1 4 -2 12 -3 18 0 5 -5 8 -9 5 -4 -2 -9 5 -9 17 -1 12 -7 23
-13 25 -5 2 -8 8 -4 13 3 5 0 9 -6 9 -6 0 -9 4 -5 9 3 5 -2 16 -10 25 -9 8
-15 17 -15 18 3 7 -15 44 -27 56 -7 8 -11 18 -8 23 4 5 3 9 -2 9 -4 0 -14 14
-21 30 -8 17 -18 27 -24 24 -6 -4 -9 -1 -6 6 2 8 -3 21 -11 30 -27 29 -51 60
-46 60 3 0 -3 8 -12 18 -10 11 -22 17 -27 14 -5 -3 -6 0 -2 6 3 6 -14 31 -38
55 -24 25 -42 48 -38 51 3 3 -3 6 -13 6 -10 0 -16 3 -12 6 8 8 -18 34 -33 34
-6 0 -8 5 -5 10 3 6 0 10 -8 10 -7 0 -20 11 -27 25 -7 13 -16 23 -19 22 -3 -1
-19 11 -35 26 -16 15 -35 27 -42 27 -8 0 -14 7 -14 16 0 8 -4 12 -10 9 -5 -3
-17 3 -27 15 -10 11 -23 20 -30 20 -7 0 -13 5 -13 10 0 6 -7 10 -15 10 -8 0
-15 5 -15 10 0 6 -7 10 -15 10 -8 0 -15 5 -15 11 0 5 -4 7 -10 4 -5 -3 -10 -1
-10 6 0 7 -3 10 -6 6 -3 -3 -15 3 -27 14 -11 10 -29 19 -39 19 -12 0 -16 4
-12 11 4 7 1 10 -7 7 -8 -3 -30 3 -49 14 -19 10 -40 18 -47 18 -7 0 -13 5 -13
11 0 5 -4 8 -9 4 -5 -3 -12 -1 -16 5 -3 5 -15 10 -26 10 -10 0 -19 4 -19 10 0
5 -7 7 -15 4 -8 -4 -15 -2 -15 3 0 5 -8 10 -17 11 -33 3 -48 8 -72 21 -19 11
-22 11 -15 -1 6 -10 5 -11 -8 -1 -8 7 -27 14 -42 15 -14 1 -26 6 -26 10 0 4
-20 8 -45 8 -25 0 -45 4 -45 8 0 4 -29 8 -64 7 -35 0 -62 3 -59 8 2 4 -13 6
-34 4 -21 -2 -46 0 -55 5 -10 5 -19 4 -23 -2 -3 -5 -15 -6 -29 0 -12 4 -28 5
-34 1z"/>
<path d="M10016 11133 c-1 -1 -28 -3 -59 -4 -32 -1 -60 -6 -63 -11 -3 -4 -14
-4 -24 2 -10 6 -21 6 -24 2 -2 -4 -22 -9 -43 -10 -21 -2 -56 -8 -78 -13 -22
-6 -49 -11 -60 -12 -11 -2 -26 -6 -33 -11 -7 -4 -16 -5 -19 -2 -4 3 -15 -2
-26 -11 -15 -13 -18 -14 -12 -3 6 12 5 13 -6 3 -7 -7 -23 -13 -36 -13 -13 0
-23 -5 -23 -11 0 -5 -4 -8 -9 -4 -5 3 -13 1 -16 -5 -4 -6 -16 -10 -28 -8 -14
2 -21 -2 -19 -10 1 -8 -6 -11 -23 -8 -18 3 -25 0 -25 -11 0 -9 -3 -13 -7 -10
-3 4 -12 2 -20 -5 -7 -6 -16 -8 -19 -5 -4 3 -16 -3 -28 -14 -11 -11 -29 -18
-39 -15 -11 2 -16 2 -13 -1 6 -6 -60 -53 -76 -53 -6 0 -17 -8 -25 -17 -9 -11
-12 -12 -7 -3 3 8 -5 3 -20 -12 -15 -16 -33 -28 -40 -28 -8 0 -17 -7 -20 -16
-3 -8 -10 -13 -15 -10 -5 3 -12 -1 -15 -10 -3 -8 -11 -12 -17 -8 -7 4 -10 3
-7 -2 3 -5 0 -15 -8 -22 -8 -7 -14 -11 -14 -8 0 3 -12 -6 -26 -19 -15 -14 -31
-22 -36 -19 -4 3 -8 2 -7 -3 3 -18 -1 -34 -8 -30 -9 4 -112 -100 -106 -107 3
-2 -5 -7 -16 -11 -12 -3 -19 -10 -17 -14 3 -4 -14 -28 -38 -54 -24 -25 -41
-49 -38 -52 4 -4 -1 -11 -11 -16 -9 -6 -17 -17 -17 -25 0 -8 -4 -13 -9 -10 -5
3 -12 -5 -15 -19 -4 -14 -11 -25 -16 -25 -6 0 -10 -7 -10 -15 0 -7 -8 -19 -17
-24 -14 -8 -15 -11 -3 -11 12 0 11 -3 -3 -11 -9 -6 -15 -14 -12 -20 4 -5 -1
-12 -9 -15 -9 -3 -16 -15 -16 -25 0 -10 -5 -19 -10 -19 -6 0 -9 -3 -9 -7 1 -5
0 -11 -1 -15 -1 -5 -3 -14 -4 -20 -1 -7 -7 -12 -13 -11 -7 2 -10 -6 -8 -17 2
-11 -1 -22 -6 -25 -5 -4 -7 -10 -4 -15 3 -4 -2 -10 -10 -14 -8 -3 -12 -12 -9
-21 3 -8 2 -15 -3 -15 -5 0 -10 -7 -11 -15 -1 -8 -3 -22 -4 -30 -1 -8 -5 -15
-9 -15 -4 0 -6 -9 -4 -20 2 -11 0 -20 -6 -20 -5 0 -9 -11 -9 -24 0 -14 -7 -31
-15 -39 -8 -9 -10 -17 -5 -19 6 -2 4 -14 -5 -30 -7 -16 -9 -28 -4 -28 6 0 6
-6 0 -17 -10 -20 -22 -82 -24 -130 -1 -18 -5 -33 -10 -33 -5 0 -4 -7 4 -16 8
-10 9 -18 3 -22 -9 -6 -12 -304 -4 -322 1 -3 2 -8 1 -12 0 -5 5 -8 11 -8 8 0
9 -3 3 -8 -12 -8 -14 -64 -3 -73 5 -3 9 -17 10 -32 1 -15 5 -27 8 -27 3 0 6
-17 8 -37 1 -20 8 -43 15 -52 9 -11 9 -13 0 -8 -8 5 -7 -2 2 -20 8 -15 15 -36
15 -45 0 -10 6 -18 13 -18 8 0 7 -4 -3 -10 -11 -7 -11 -10 -2 -10 7 0 10 -4 7
-10 -3 -5 -1 -10 6 -10 7 0 10 -3 6 -6 -3 -4 0 -19 9 -35 8 -16 14 -31 14 -34
-1 -22 2 -25 13 -19 6 4 9 4 5 0 -9 -10 11 -66 24 -66 5 0 7 -4 3 -9 -3 -5 1
-15 8 -23 8 -7 13 -21 11 -30 -1 -10 3 -16 9 -15 7 1 12 -5 12 -13 0 -8 8 -24
18 -34 9 -11 17 -26 17 -33 0 -7 5 -13 10 -13 6 0 10 -7 10 -15 0 -8 5 -15 10
-15 6 0 10 -7 10 -15 0 -7 8 -19 18 -24 9 -6 13 -11 9 -11 -5 0 -2 -6 5 -14
30 -31 57 -66 52 -66 -3 0 8 -13 25 -29 16 -15 27 -31 24 -35 -3 -3 1 -6 10
-6 9 0 17 -5 17 -11 0 -14 76 -89 91 -89 7 0 9 -3 6 -7 -4 -3 2 -13 13 -20 11
-8 17 -20 14 -26 -4 -7 -4 -9 1 -5 11 10 47 -11 40 -22 -3 -6 1 -7 9 -4 9 3
16 1 16 -5 0 -6 7 -11 15 -11 8 0 15 -7 15 -16 0 -10 6 -14 14 -11 8 3 18 -4
24 -19 7 -14 17 -21 25 -18 8 3 17 -2 21 -11 3 -9 10 -14 15 -10 6 3 13 -1 18
-8 4 -8 25 -22 46 -32 20 -9 37 -22 37 -27 0 -5 5 -6 10 -3 6 3 10 2 10 -4 0
-6 7 -7 17 -4 11 4 14 3 9 -5 -6 -10 16 -18 27 -9 2 1 11 -6 21 -16 10 -9 22
-15 27 -11 5 3 16 -2 25 -11 9 -9 22 -14 29 -11 8 3 16 -1 19 -9 2 -7 13 -12
23 -11 10 2 20 0 23 -3 11 -14 172 -60 187 -54 12 5 14 3 8 -7 -6 -10 -4 -12
8 -7 10 3 17 3 17 -1 0 -5 14 -7 30 -6 17 1 33 -2 36 -7 3 -5 14 -4 26 2 13 7
18 7 14 1 -4 -7 11 -10 43 -9 27 1 47 -1 45 -5 -2 -4 0 -9 5 -12 5 -4 12 -2
16 4 4 6 12 7 24 1 10 -6 23 -6 31 -1 8 5 19 6 24 2 17 -10 116 -8 116 3 0 6
5 3 10 -5 6 -10 10 -11 10 -3 0 9 7 10 25 3 14 -5 27 -6 30 0 3 5 14 7 25 5
11 -2 20 2 20 8 0 8 3 8 9 -2 5 -7 11 -9 14 -4 4 5 16 9 29 8 13 -1 26 3 30 9
5 7 8 7 8 -2 0 -8 5 -10 13 -5 6 4 24 8 39 9 15 1 33 5 40 11 7 5 23 8 36 7
12 0 22 2 22 7 0 5 6 6 14 3 8 -3 17 -1 20 5 4 6 13 8 21 4 8 -3 15 -1 15 5 0
6 11 9 25 8 13 -2 22 1 19 5 -3 5 2 10 10 10 25 2 30 4 44 12 6 5 16 6 21 3 5
-3 12 1 15 9 3 8 9 14 13 13 7 -1 33 8 83 29 8 3 18 5 23 5 4 -1 7 2 7 8 0 5
7 10 15 10 8 0 15 5 15 10 0 6 3 9 8 8 13 -3 52 13 52 22 0 9 39 25 53 22 4
-1 7 5 7 14 0 8 4 13 9 9 6 -3 14 3 20 12 5 10 12 15 16 11 3 -3 16 4 29 16
12 11 32 27 44 35 11 8 18 19 15 24 -3 6 -1 7 5 3 6 -4 28 9 48 28 21 19 42
32 47 29 6 -4 8 0 4 10 -4 11 -1 17 9 17 9 0 12 5 8 12 -5 8 -2 9 9 5 10 -4
17 -2 17 5 0 6 16 26 36 44 19 19 32 38 29 44 -4 6 -3 9 2 8 4 -1 21 10 37 25
16 15 25 27 20 27 -5 0 -1 5 9 11 9 5 17 17 17 25 0 8 5 12 10 9 6 -3 10 0 10
8 0 8 9 22 20 32 11 10 20 23 20 29 0 6 11 24 25 39 14 15 23 27 20 27 -3 0 5
17 19 37 14 20 23 40 20 45 -3 4 -1 8 5 8 5 0 15 16 21 36 7 19 18 38 25 41 8
2 11 12 8 20 -4 11 -2 14 5 9 8 -5 10 -2 6 8 -3 9 -1 16 6 16 6 0 8 5 5 10 -4
6 -1 17 5 25 6 8 9 18 6 24 -3 5 -1 11 4 13 6 2 12 13 13 26 0 12 6 22 11 22
5 0 6 3 3 6 -3 4 -2 15 3 25 6 10 11 29 12 43 1 15 6 26 10 26 4 0 8 13 8 29
0 17 4 32 9 35 5 4 8 24 7 46 -2 22 1 40 5 40 7 0 9 8 10 57 0 13 4 25 10 28
5 4 5 14 -1 26 -8 14 -7 19 2 19 9 0 9 3 -2 10 -8 5 -10 10 -4 10 14 0 14 262
0 272 -7 5 -6 8 2 8 7 0 10 4 7 10 -12 20 -14 50 -2 50 8 0 7 3 -2 9 -7 5 -11
13 -7 19 3 6 3 13 -2 16 -4 2 -9 19 -10 37 -1 18 -7 38 -12 44 -6 7 -6 15 1
22 8 8 8 13 0 17 -6 4 -11 17 -11 30 0 12 -6 28 -12 35 -11 11 -10 12 2 6 12
-6 13 -5 3 6 -7 7 -13 21 -13 31 0 10 -4 18 -8 18 -7 0 -9 8 -14 64 -1 14 -7
24 -12 23 -6 -1 -10 6 -8 16 2 9 -3 17 -9 17 -7 0 -10 3 -6 6 3 4 0 19 -8 34
-8 15 -11 30 -8 34 4 3 -2 6 -13 7 -11 0 -14 3 -6 6 10 4 9 9 -5 20 -10 8 -12
12 -6 8 9 -4 11 -1 7 9 -3 9 -9 16 -13 16 -4 0 -13 16 -21 35 -8 19 -18 35
-22 35 -5 0 -6 5 -3 10 3 6 -1 13 -9 16 -9 3 -14 10 -11 14 3 4 -2 13 -10 20
-8 7 -15 19 -15 26 0 8 -4 14 -10 14 -5 0 -10 7 -10 15 0 8 -5 15 -12 15 -6 0
-8 3 -5 7 4 3 -7 19 -23 35 -16 15 -28 28 -25 28 5 0 -19 32 -47 62 -10 10
-16 18 -13 18 3 0 0 6 -7 14 -7 8 -16 12 -20 9 -5 -2 -8 3 -8 11 0 9 -7 16
-15 16 -8 0 -14 4 -12 9 3 10 -79 91 -94 91 -5 0 -7 5 -4 10 3 6 1 10 -4 10
-6 0 -19 7 -28 16 -39 35 -78 64 -86 64 -5 0 -5 5 -1 12 4 7 3 8 -4 4 -7 -4
-23 4 -37 18 -14 14 -25 21 -25 15 0 -5 -10 -1 -22 11 -12 11 -26 20 -30 20
-5 0 -7 4 -4 8 2 4 -5 9 -16 9 -12 1 -24 6 -27 12 -4 5 -18 13 -34 16 -15 4
-24 11 -21 16 3 5 -13 12 -35 15 -22 4 -46 13 -52 20 -6 8 -15 11 -20 8 -5 -3
-9 0 -9 6 0 6 -4 9 -9 6 -5 -4 -11 -3 -13 2 -1 4 -22 15 -46 24 -23 9 -39 12
-36 6 4 -5 -5 -3 -18 6 -14 9 -28 13 -31 9 -4 -3 -7 -2 -7 3 0 5 -12 11 -27
12 -15 1 -30 8 -35 15 -4 6 -8 9 -8 6 0 -4 -19 -3 -42 3 -39 8 -88 16 -145 21
-12 2 -25 6 -29 10 -4 3 -16 2 -27 -4 -11 -6 -17 -7 -13 -1 3 5 -18 10 -52 11
-31 1 -79 3 -105 4 -27 1 -49 1 -51 0z"/>
</g>
</svg>
