<?xml version="1.0" standalone="no"?>
<!DOCTYPE svg PUBLIC "-//W3C//DTD SVG 20010904//EN"
 "http://www.w3.org/TR/2001/REC-SVG-20010904/DTD/svg10.dtd">
<svg version="1.0" xmlns="http://www.w3.org/2000/svg"
 width="512.000000pt" height="512.000000pt" viewBox="0 0 512.000000 512.000000"
 preserveAspectRatio="xMidYMid meet">
<metadata>
Created by potrace 1.14, written by Peter Selinger 2001-2017
</metadata>
<g transform="translate(0.000000,512.000000) scale(0.100000,-0.100000)"
fill="#000000" stroke="none">
<path d="M0 2560 l0 -2560 2560 0 2560 0 0 2560 0 2560 -2560 0 -2560 0 0
-2560z m3023 1394 l37 -7 0 -139 c0 -136 -1 -139 -26 -165 l-26 -26 -149 5
c-98 3 -154 9 -162 17 -14 14 -17 284 -4 297 19 19 246 31 330 18z m2 -579
c-4 -44 -11 -395 -14 -780 l-7 -700 -27 -82 c-79 -239 -240 -336 -506 -305
-115 13 -198 39 -248 78 l-34 26 34 41 c18 22 59 61 91 86 48 38 60 43 74 33
43 -30 74 -42 125 -48 146 -17 214 48 248 236 18 98 18 702 1 925 -15 178 -38
430 -48 515 l-6 55 162 0 162 0 -7 -80z m-626 5 c16 -8 19 -30 26 -174 8 -186
4 -221 -28 -230 -67 -18 -261 -29 -332 -19 -42 6 -79 13 -82 17 -10 9 -16 239
-9 310 6 50 12 69 26 76 42 23 365 39 399 20z m-1 -1054 c17 -10 17 -355 0
-379 -17 -22 -138 -37 -304 -37 l-121 0 -7 61 c-3 34 -6 124 -6 200 l0 138 53
10 c28 5 61 12 72 15 30 7 299 1 313 -8z"/>
</g>
</svg>
